<?xml version="1.0" encoding="utf-8"?>
<!-- Generator: Adobe Illustrator 24.0.1, SVG Export Plug-In . SVG Version: 6.00 Build 0)  -->
<svg version="1.1" id="Calque_1" xmlns="http://www.w3.org/2000/svg" xmlns:xlink="http://www.w3.org/1999/xlink" x="0px" y="0px"
	 viewBox="0 0 60 60" style="enable-background:new 0 0 60 60;" xml:space="preserve">
<style type="text/css">
	.st0{fill:#FAEEE5;}
</style>
<g>
	<g id="Groupe_49" transform="translate(42.666)">
		<g id="Groupe_48">
			<path id="Tracé_120" class="st0" d="M-2.33,32.42l-5.11-2.27c-0.36-0.16-0.59-0.52-0.59-0.91v-1.4
				c1.78-1.41,2.82-3.56,2.82-5.83v-1.97c0.58-0.32,0.94-0.93,0.94-1.59v-0.19c0-4.11-3.34-7.45-7.45-7.46h-1.88
				c-4.12,0-7.45,3.34-7.45,7.45v1.74c-0.01,0.57,0.25,1.12,0.7,1.48c0.07,0.06,0.15,0.11,0.24,0.15v0.39
				c0,2.27,1.04,4.42,2.82,5.83v1.4c0,0.4-0.23,0.75-0.59,0.91L-23,32.42c-1.67,0.75-2.75,2.41-2.75,4.24v11.65
				c-0.01,0.49,0.37,0.89,0.86,0.9c0.49,0.01,0.89-0.37,0.9-0.86c0-0.01,0-0.02,0-0.04V36.66c0-0.1,0.01-0.2,0.02-0.3l2.35,2.35
				c0.36,0.36,0.57,0.86,0.57,1.37v8.23c-0.01,0.49,0.37,0.89,0.86,0.9s0.89-0.37,0.9-0.86c0-0.01,0-0.02,0-0.04v-8.23
				c0-0.98-0.39-1.92-1.08-2.62l-2.81-2.81c0.26-0.27,0.56-0.48,0.9-0.63l5.02-2.23l3.72,3.72V48.3c0.01,0.49,0.41,0.87,0.9,0.86
				c0.47-0.01,0.85-0.39,0.86-0.86V35.52l3.72-3.72l5.02,2.23c0.34,0.15,0.64,0.37,0.9,0.63l-2.81,2.8
				c-0.7,0.69-1.09,1.63-1.08,2.62v8.23c-0.01,0.49,0.37,0.89,0.86,0.9s0.89-0.37,0.9-0.86c0-0.01,0-0.02,0-0.04v-8.23
				c0-0.51,0.2-1.01,0.57-1.37l2.35-2.35c0.01,0.1,0.02,0.2,0.02,0.3v11.65c-0.01,0.49,0.37,0.89,0.86,0.9
				c0.49,0.01,0.89-0.37,0.9-0.86c0-0.01,0-0.02,0-0.04V36.66C0.42,34.83-0.65,33.17-2.33,32.42z M-12.67,33.91l-3.27-3.27
				c0.25-0.43,0.39-0.91,0.39-1.41v-0.36c1.84,0.77,3.92,0.77,5.76,0v0.36c0,0.5,0.14,0.98,0.39,1.41L-12.67,33.91z M-12.67,27.7
				c-3.14,0-5.69-2.55-5.7-5.7v-0.4c0.59-0.24,1.13-0.6,1.6-1.04c0.35-0.33,0.37-0.89,0.04-1.24s-0.88-0.37-1.23-0.05
				c-0.37,0.36-0.81,0.63-1.31,0.78h-0.02c-0.01-0.02-0.02-0.05-0.02-0.08v-1.74c0-3.14,2.55-5.69,5.7-5.7h1.88
				c3.14,0,5.69,2.55,5.7,5.7v0.19c0,0.03-0.01,0.05-0.04,0.06c-5.26,1.04-7.9-0.92-8.79-1.81c-0.35-0.33-0.91-0.32-1.24,0.03
				c-0.32,0.34-0.32,0.87,0,1.21c2.73,2.73,6.71,2.78,9.14,2.49V22C-6.97,25.15-9.52,27.7-12.67,27.7L-12.67,27.7z"/>
		</g>
	</g>
	<g id="Groupe_51" transform="translate(0 11.854)">
		<g id="Groupe_50">
			<path id="Tracé_121" class="st0" d="M15.85,15.79v-1.88c0-2.21-1.13-4.27-2.99-5.47c0.61-1.95-0.47-4.02-2.42-4.63
				C8.49,3.19,6.42,4.28,5.81,6.23c-0.23,0.72-0.23,1.49,0,2.21c-1.86,1.2-2.99,3.26-2.99,5.47v1.88c0,2.14,1.05,4.15,2.82,5.36
				v1.93c0,0.38-0.21,0.73-0.55,0.89l-3.04,1.52C0.79,26.12,0,27.4,0,28.8v7.65c-0.01,0.49,0.37,0.89,0.86,0.9
				c0.49,0.01,0.89-0.37,0.9-0.86c0-0.01,0-0.02,0-0.04v-7.27l1.43,1.43c0.36,0.36,0.57,0.86,0.57,1.37v4.47
				c0.01,0.49,0.41,0.87,0.9,0.86c0.47-0.01,0.85-0.39,0.86-0.86v-4.47c0-0.98-0.39-1.92-1.08-2.62l-1.99-1.99
				c-0.01-0.01-0.02-0.02-0.03-0.03c0.13-0.11,0.27-0.21,0.42-0.28l3.04-1.52c0.15-0.08,0.3-0.17,0.44-0.27l2.15,2.15v9.03
				c-0.01,0.49,0.37,0.89,0.86,0.9s0.89-0.37,0.9-0.86c0-0.01,0-0.02,0-0.04v-9.03l2.15-2.15c0.14,0.1,0.28,0.2,0.44,0.27l0.84,0.42
				c0.43,0.22,0.96,0.04,1.18-0.39s0.04-0.96-0.39-1.18l-0.84-0.42c-0.34-0.17-0.56-0.51-0.55-0.89v-1.93
				C14.79,19.93,15.85,17.93,15.85,15.79z M9.33,5.39c1.07,0,1.94,0.87,1.94,1.94c0,0.12-0.01,0.23-0.03,0.35
				C10,7.3,8.67,7.3,7.43,7.68C7.41,7.57,7.4,7.45,7.39,7.33C7.4,6.26,8.26,5.4,9.33,5.39z M9.33,9.15c2.63,0,4.75,2.13,4.76,4.76
				v0.32c-2.16,0.68-4.51-0.03-5.93-1.78c-0.29-0.39-0.84-0.47-1.23-0.18c-0.03,0.03-0.07,0.05-0.09,0.08
				C6.2,13,5.43,13.49,4.58,13.79C4.65,11.21,6.75,9.15,9.33,9.15L9.33,9.15z M9.33,25.82L7.3,23.79c0.06-0.23,0.09-0.47,0.09-0.71
				v-1.07c1.26,0.39,2.62,0.39,3.88,0v1.07c0,0.24,0.03,0.48,0.09,0.71L9.33,25.82z M9.33,20.55c-2.63,0-4.75-2.13-4.76-4.76v-0.18
				c1.04-0.25,2-0.73,2.82-1.41c0.49,0.46,1.04,0.86,1.63,1.19c1.03,0.57,2.18,0.86,3.36,0.87c0.57,0,1.14-0.07,1.69-0.2
				C13.94,18.57,11.86,20.54,9.33,20.55L9.33,20.55z"/>
		</g>
	</g>
	<g id="Groupe_53" transform="translate(106.658 16.593)">
		<g id="Groupe_52">
			<path id="Tracé_122" class="st0" d="M-48.7,18.88l-4.92-2.46c-0.34-0.17-0.56-0.51-0.55-0.89v-1.25
				c1.2-1.06,1.88-2.57,1.88-4.17v-1c0.02,0,0.04,0,0.06,0c0.49,0,0.88-0.39,0.88-0.88V6.35c0-3.08-2.5-5.57-5.57-5.57h-1.88
				c-3.08,0-5.57,2.5-5.58,5.58v1.88c0,0.49,0.39,0.88,0.88,0.88c0.01,0,0.03,0,0.06,0v1c0,1.59,0.68,3.11,1.88,4.17v1.24
				c0,0.38-0.21,0.73-0.55,0.89c-0.43,0.22-0.61,0.75-0.39,1.18c0.15,0.3,0.45,0.48,0.78,0.48c0.14,0,0.27-0.03,0.39-0.09
				c0.15-0.08,0.3-0.17,0.44-0.27l2.15,2.15v11.85c-0.01,0.49,0.37,0.89,0.86,0.9s0.89-0.37,0.9-0.86c0-0.01,0-0.02,0-0.04V19.87
				l2.15-2.15c0.14,0.1,0.28,0.2,0.44,0.27l4.76,2.38l-1.44,1.44c-0.7,0.69-1.09,1.63-1.08,2.62v7.29c0.01,0.49,0.41,0.87,0.9,0.86
				c0.47-0.01,0.85-0.39,0.86-0.86v-7.28c0-0.51,0.2-1.01,0.57-1.37l1.37-1.37c0.04,0.16,0.06,0.33,0.06,0.49v9.53
				c0.01,0.49,0.41,0.87,0.9,0.86c0.47-0.01,0.85-0.39,0.86-0.86v-9.53C-46.65,20.78-47.45,19.5-48.7,18.88z M-62.63,7.17V6.35l0,0
				c0-2.11,1.71-3.82,3.82-3.82h1.88c2.11,0,3.82,1.71,3.82,3.82v0.98c-3.82-0.21-6.13-1.69-6.15-1.71
				c-0.35-0.23-0.81-0.19-1.11,0.11C-61,6.38-61.77,6.88-62.63,7.17z M-57.87,18.26l-2.03-2.03c0.06-0.23,0.09-0.47,0.09-0.71v-0.19
				c1.25,0.46,2.63,0.46,3.88,0v0.19c0,0.24,0.03,0.48,0.09,0.71L-57.87,18.26z M-57.87,13.93c-2.11,0-3.82-1.71-3.82-3.82V8.69l0,0
				c0.75-0.3,1.45-0.73,2.06-1.26c1.74,0.87,3.63,1.41,5.57,1.59v1.09C-54.06,12.22-55.76,13.92-57.87,13.93L-57.87,13.93z"/>
		</g>
	</g>
</g>
</svg>
