<?xml version="1.0" encoding="utf-8"?>
<!-- Generator: Adobe Illustrator 24.0.1, SVG Export Plug-In . SVG Version: 6.00 Build 0)  -->
<svg version="1.1" id="Calque_1" xmlns="http://www.w3.org/2000/svg" xmlns:xlink="http://www.w3.org/1999/xlink" x="0px" y="0px"
	 viewBox="0 0 60 60" style="enable-background:new 0 0 60 60;" xml:space="preserve">
<style type="text/css">
	.st0{fill:#FAEEE5;}
</style>
<g>
	<path class="st0" d="M33.1,28.6c-0.13-0.08-0.28-0.13-0.42-0.16L30.14,28c-0.3-0.04-0.61,0.04-0.86,0.22
		c-0.25,0.19-0.41,0.46-0.45,0.76c-0.08,0.6,0.31,1.16,0.91,1.29l2.33,0.41l7.87,4.84c0.19,0.12,0.4,0.17,0.6,0.17
		c0.39,0,0.77-0.2,0.99-0.55c0.27-0.44,0.21-0.99-0.11-1.36l0.04-0.04L33.1,28.6z"/>
	<path class="st0" d="M58.79,33.51c-0.31-0.01-0.6,0.1-0.83,0.31l-3.33,3.11L38.88,21.39L59.53,2.04c0.48-0.41,0.54-1.15,0.13-1.63
		s-1.14-0.54-1.63-0.13C58,0.3,57.98,0.32,57.96,0.34L36.42,20.53c-0.46,0.44-0.48,1.18-0.02,1.67l1.21,1.19l-0.14,0.12l-9.43-0.81
		c-0.2-0.02-0.4,0.02-0.58,0.1l-7.48,3.41l-3.99-0.71l0.22-0.57c0.23-0.59-0.06-1.26-0.65-1.5L1.65,17.86
		c-0.29-0.12-0.6-0.11-0.89,0.01c-0.28,0.12-0.5,0.35-0.62,0.63c-0.11,0.29-0.11,0.6,0.01,0.89c0.12,0.28,0.35,0.5,0.63,0.62
		l12.85,5.14L6.12,44.38l-4.52-1.6c-0.61-0.2-1.26,0.13-1.46,0.73c-0.2,0.59,0.11,1.23,0.7,1.45l5.57,1.97
		c0.59,0.2,1.23-0.09,1.46-0.67l1.17-2.99l2.84,1.59l-0.21,0.35c-0.55,0.89-0.73,1.95-0.48,2.98c0.24,1.02,0.87,1.89,1.76,2.45
		c0.89,0.55,1.96,0.72,2.98,0.48c0.21,0.91,0.74,1.7,1.49,2.26c0.85,0.62,1.88,0.88,2.92,0.72c0.11-0.02,0.21-0.04,0.32-0.06
		c0.21,0.91,0.74,1.7,1.5,2.26c0.85,0.62,1.89,0.88,2.93,0.72c0.11-0.02,0.21-0.04,0.31-0.06c0.21,0.91,0.73,1.7,1.49,2.26
		c0.68,0.51,1.49,0.77,2.33,0.77c0.2,0,0.4-0.01,0.59-0.04c1.15-0.17,2.16-0.84,2.77-1.83l0.44-0.72l0.24,0.15
		c0.89,0.55,1.95,0.72,2.97,0.48s1.89-0.87,2.45-1.77c0.36-0.59,0.56-1.25,0.58-1.93c0.18,0.03,0.37,0.04,0.55,0.04
		c1.38,0,2.64-0.71,3.36-1.88c0.36-0.59,0.56-1.25,0.58-1.93c0.18,0.03,0.37,0.04,0.55,0.04c1.38,0,2.64-0.71,3.36-1.88
		c0.37-0.59,0.56-1.25,0.58-1.94c1.99,0.29,3.91-0.99,4.39-2.98c0.4-1.66-0.31-3.38-1.77-4.27l-0.29-0.18l1.55-1.62l1.66,1.64
		c0.44,0.43,1.14,0.44,1.6,0.02l4.14-3.87c0.46-0.44,0.48-1.17,0.05-1.64C59.39,33.65,59.1,33.52,58.79,33.51z M48.57,38.1
		l-4.11-2.53c-0.26-0.16-0.57-0.21-0.87-0.14s-0.56,0.26-0.72,0.52c-0.33,0.54-0.16,1.26,0.38,1.59l6.43,3.95
		c0.76,0.47,1,1.47,0.53,2.24c-0.23,0.37-0.59,0.63-1.01,0.73s-0.86,0.03-1.23-0.2l-6.89-4.24c-0.54-0.34-1.26-0.16-1.59,0.38
		c-0.16,0.26-0.21,0.57-0.14,0.87s0.26,0.56,0.52,0.72l5.31,3.26c0.37,0.23,0.63,0.59,0.73,1.01s0.03,0.86-0.2,1.23
		s-0.59,0.63-1.01,0.73s-0.86,0.03-1.23-0.2l-4.81-2.95c-0.54-0.33-1.26-0.16-1.59,0.38s-0.16,1.26,0.38,1.59l3.23,1.98
		c0.37,0.23,0.63,0.59,0.73,1.01s0.03,0.86-0.2,1.23c-0.47,0.76-1.47,1-2.24,0.53c-2.86-1.75-2.88-1.76-2.9-1.77
		c-0.15-0.07-0.32-0.11-0.48-0.11c-0.13,0-0.27,0.02-0.4,0.07c-0.29,0.11-0.52,0.32-0.65,0.6c-0.02,0.05-0.04,0.11-0.06,0.16
		c-0.68-1.08-1.87-1.78-3.19-1.8c0.07-0.51,0.04-1.03-0.08-1.53c-0.42-1.73-1.94-2.94-3.69-2.98c0.22-1.57-0.5-3.12-1.87-3.96
		c-0.58-0.34-1.22-0.52-1.89-0.54c0.3-1.98-0.96-3.9-2.94-4.4c-1.67-0.42-3.4,0.29-4.3,1.76l-3.44,5.57l-3.2-1.79l5.24-13.4
		l2.27,0.4c-1.04,1.66-0.7,3.89,0.86,5.16c1.17,0.94,2.74,1.14,4.11,0.52l5.08-2.32c0.29-0.11,0.52-0.33,0.64-0.61
		c0.12-0.28,0.13-0.6,0.02-0.88c-0.23-0.6-0.9-0.89-1.5-0.66c-0.04,0.02-0.08,0.03-0.1,0.05l-5.09,2.32c-0.82,0.37-1.78,0-2.15-0.82
		c-0.36-0.81,0-1.77,0.8-2.14l8.08-3.68l9.65,0.83h0.07c0.28,0,0.55-0.1,0.76-0.29L39.24,25l11.23,11.08L48.57,38.1z M34.49,55.01
		c0.53-0.87,0.72-1.93,0.51-2.93l1.17,0.72c0.76,0.47,1,1.47,0.53,2.24c-0.47,0.76-1.47,1-2.24,0.53l-0.24-0.15L34.49,55.01z
		 M13.63,46.43l4.87-7.9c0.31-0.5,0.84-0.77,1.39-0.77c0.28,0,0.56,0.07,0.82,0.22c0.77,0.49,1.01,1.53,0.53,2.31l-4.83,7.84
		c-0.49,0.75-1.5,0.96-2.25,0.47C13.42,48.13,13.19,47.17,13.63,46.43z M18.32,49.42l3.94-6.39c0.31-0.5,0.84-0.78,1.39-0.78
		c0.28,0,0.56,0.07,0.82,0.22c0.77,0.49,1.01,1.53,0.53,2.31l-3.87,6.27v0.01c-0.22,0.38-0.57,0.64-0.99,0.75s-0.86,0.05-1.23-0.17
		s-0.64-0.57-0.75-0.99C18.04,50.24,18.1,49.8,18.32,49.42z M23.1,52.27l2.93-4.74c0.31-0.5,0.84-0.78,1.39-0.78
		c0.28,0,0.56,0.07,0.81,0.22c0.77,0.49,1.01,1.53,0.53,2.31l-2.89,4.69c-0.47,0.76-1.48,1-2.24,0.53
		C22.88,54.04,22.64,53.03,23.1,52.27z M32.43,53.96l-1.82,2.96c-0.22,0.38-0.57,0.64-0.99,0.75s-0.86,0.05-1.23-0.17
		c-0.77-0.45-1.04-1.45-0.58-2.23l1.99-3.23c0.31-0.5,0.84-0.78,1.39-0.78c0.28,0,0.56,0.07,0.82,0.22
		c0.77,0.49,1.01,1.53,0.53,2.31L32.43,53.96L32.43,53.96z"/>
</g>
</svg>
