<?xml version="1.0" encoding="utf-8"?>
<!-- Generator: Adobe Illustrator 24.0.1, SVG Export Plug-In . SVG Version: 6.00 Build 0)  -->
<svg version="1.1" id="Calque_1" xmlns="http://www.w3.org/2000/svg" xmlns:xlink="http://www.w3.org/1999/xlink" x="0px" y="0px"
	 viewBox="0 0 60 60" style="enable-background:new 0 0 60 60;" xml:space="preserve">
<style type="text/css">
	.st0{fill:#30425A;}
</style>
<g>
	<path class="st0" d="M54.76,17.82h-10.6v-4.71c0-0.02-0.01-0.04-0.01-0.06c-0.01-0.1-0.03-0.2-0.06-0.29
		c-0.01-0.04-0.03-0.08-0.05-0.13c-0.06-0.14-0.15-0.27-0.26-0.38L31.89,0.38c-0.11-0.11-0.24-0.19-0.38-0.26
		c-0.04-0.01-0.07-0.03-0.11-0.04c-0.1-0.03-0.2-0.05-0.31-0.06L31.04,0H5.25C2.36,0,0.01,2.36,0,5.25V50.8
		c0,2.89,2.36,5.24,5.25,5.25h20.66c0.59,2.31,2.69,3.96,5.09,3.96h23.76c2.89,0,5.24-2.36,5.25-5.25V23.07
		C59.99,20.18,57.64,17.83,54.76,17.82z M28.32,23.07c0-1.47,1.2-2.68,2.67-2.68h23.76c1.47,0,2.67,1.2,2.67,2.68v31.69
		c0,1.47-1.2,2.67-2.67,2.67H30.99c-1.47,0-2.67-1.2-2.68-2.67V23.07H28.32z M2.57,5.25c0-1.47,1.2-2.67,2.68-2.68h24.46v8.62
		c0,1.8,1.46,3.27,3.27,3.27h8.62v3.37H31c-2.89,0-5.24,2.36-5.25,5.25v30.4H5.25c-1.47,0-2.67-1.2-2.68-2.68V5.25z M32.28,11.19
		v-6.8l7.49,7.49h-6.8C32.59,11.88,32.28,11.57,32.28,11.19z"/>
	<path class="st0" d="M34.95,36.24h15.84c2.89,0,5.24-2.36,5.25-5.25v-3.96c0-2.89-2.36-5.24-5.24-5.25H34.95
		c-2.89,0-5.24,2.36-5.25,5.25v3.96C29.71,33.88,32.06,36.23,34.95,36.24z M53.47,30.99c0,1.47-1.2,2.67-2.68,2.67H34.95
		c-1.47,0-2.67-1.2-2.68-2.67v-3.96c0-1.47,1.2-2.67,2.68-2.68h15.84c1.47,0,2.67,1.2,2.68,2.68V30.99z"/>
	<path class="st0" d="M33.96,46.14c2.35,0,4.26-1.91,4.26-4.26c0-2.35-1.91-4.26-4.26-4.26s-4.26,1.91-4.26,4.26
		C29.71,44.23,31.62,46.14,33.96,46.14z M35.15,43.07c-0.32,0.32-0.74,0.49-1.19,0.49c-0.93,0-1.68-0.76-1.68-1.68
		c0-0.93,0.76-1.68,1.68-1.68c0.93,0,1.68,0.76,1.68,1.68C35.65,42.33,35.47,42.75,35.15,43.07z"/>
	<path class="st0" d="M42.87,37.63c-2.35,0-4.26,1.91-4.26,4.26s1.91,4.26,4.26,4.26c2.35,0,4.26-1.91,4.26-4.26
		C47.13,39.53,45.22,37.63,42.87,37.63z M44.56,41.88c0,0.93-0.76,1.68-1.68,1.68c-0.93,0-1.68-0.76-1.68-1.68
		c0-0.93,0.76-1.68,1.68-1.68C43.8,40.2,44.56,40.95,44.56,41.88z"/>
	<path class="st0" d="M33.96,56.04c2.35,0,4.26-1.91,4.26-4.26c0-2.35-1.91-4.26-4.26-4.26s-4.26,1.91-4.26,4.26
		C29.71,54.13,31.62,56.04,33.96,56.04z M35.15,52.97c-0.32,0.32-0.74,0.49-1.19,0.49c-0.93,0-1.68-0.76-1.68-1.68
		s0.76-1.68,1.68-1.68c0.93,0,1.68,0.76,1.68,1.68C35.65,52.23,35.47,52.66,35.15,52.97z"/>
	<path class="st0" d="M42.87,47.53c-2.35,0-4.26,1.91-4.26,4.26c0,2.35,1.91,4.26,4.26,4.26c2.35,0,4.26-1.91,4.26-4.26
		C47.13,49.44,45.22,47.53,42.87,47.53z M44.56,51.78c0,0.93-0.76,1.68-1.68,1.68c-0.93,0-1.68-0.76-1.68-1.68s0.76-1.68,1.68-1.68
		C43.8,50.1,44.56,50.85,44.56,51.78z"/>
	<path class="st0" d="M51.78,37.63c-2.35,0-4.26,1.91-4.26,4.26v9.9c0,2.35,1.91,4.25,4.26,4.25l0,0c2.34,0,4.25-1.91,4.25-4.25
		v-9.9C56.04,39.53,54.13,37.63,51.78,37.63z M50.1,41.88c0-0.93,0.76-1.68,1.68-1.68c0.93,0,1.68,0.76,1.68,1.68v9.9
		c0,0.93-0.76,1.68-1.68,1.68c-0.93,0-1.68-0.76-1.68-1.68V41.88z"/>
	<path class="st0" d="M10.28,18.04L10.28,18.04c0.25,0.25,0.58,0.38,0.91,0.38s0.66-0.12,0.91-0.38l8.92-8.92
		c0.24-0.25,0.36-0.58,0.35-0.92s-0.15-0.66-0.4-0.9c-0.5-0.47-1.27-0.47-1.78,0.01l-8.91,8.91C9.78,16.72,9.78,17.54,10.28,18.04z"
		/>
	<path class="st0" d="M15.84,16.14c0,1.8,1.47,3.27,3.27,3.27s3.27-1.47,3.27-3.27s-1.46-3.27-3.27-3.27
		C17.31,12.87,15.84,14.34,15.84,16.14z M19.8,16.14c0,0.38-0.31,0.69-0.69,0.69c-0.38,0-0.69-0.31-0.69-0.69s0.31-0.69,0.69-0.69
		C19.49,15.44,19.8,15.76,19.8,16.14z"/>
	<path class="st0" d="M12.18,12.47c1.8,0,3.27-1.47,3.27-3.27s-1.47-3.27-3.27-3.27S8.91,7.41,8.91,9.21S10.38,12.47,12.18,12.47z
		 M12.18,8.51L12.18,8.51L12.18,8.51c0.38,0,0.69,0.31,0.69,0.69c0,0.38-0.31,0.69-0.69,0.69c-0.38,0-0.69-0.31-0.69-0.69
		c0-0.19,0.07-0.36,0.2-0.49C11.82,8.58,11.99,8.51,12.18,8.51z"/>
	<path class="st0" d="M7.23,27.33h11.88c0.71,0,1.29-0.58,1.29-1.29s-0.58-1.29-1.29-1.29H7.23c-0.71,0-1.29,0.58-1.29,1.29
		C5.94,26.75,6.52,27.33,7.23,27.33z"/>
	<path class="st0" d="M7.23,31.29h13.86c0.71,0,1.29-0.58,1.29-1.29c0-0.71-0.58-1.29-1.29-1.29H7.23c-0.71,0-1.29,0.58-1.29,1.29
		C5.94,30.71,6.52,31.29,7.23,31.29z"/>
	<path class="st0" d="M11.19,32.67H7.23c-0.71,0-1.29,0.58-1.29,1.29s0.58,1.29,1.29,1.29h3.96c0.71,0,1.29-0.58,1.29-1.29
		C12.47,33.25,11.9,32.67,11.19,32.67z"/>
	<path class="st0" d="M21.09,32.67h-5.94c-0.71,0-1.29,0.58-1.29,1.29s0.58,1.29,1.29,1.29h5.94c0.71,0,1.29-0.58,1.29-1.29
		C22.38,33.25,21.8,32.67,21.09,32.67z"/>
</g>
</svg>
