<?xml version="1.0" encoding="utf-8"?>
<!-- Generator: Adobe Illustrator 24.0.1, SVG Export Plug-In . SVG Version: 6.00 Build 0)  -->
<svg version="1.1" id="Calque_1" xmlns="http://www.w3.org/2000/svg" xmlns:xlink="http://www.w3.org/1999/xlink" x="0px" y="0px"
	 viewBox="0 0 60 60" style="enable-background:new 0 0 60 60;" xml:space="preserve">
<style type="text/css">
	.st0{fill:#30425A;}
</style>
<g id="Groupe_94">
	<path id="Tracé_163" class="st0" d="M59.04,8c0.55,0,1-0.45,1-1l0,0V1c0-0.55-0.45-1-1-1l0,0h-58c-0.55,0-1,0.45-1,1l0,0v6
		c0,0.55,0.45,1,1,1l0,0h1v40h-1c-0.55,0-1,0.45-1,1s0.45,1,1,1h28v2.12c-2.14,0.55-3.42,2.73-2.87,4.87
		c0.55,2.14,2.73,3.42,4.87,2.87s3.42-2.73,2.87-4.87c-0.36-1.41-1.46-2.51-2.87-2.87V50h28c0.55,0,1-0.45,1-1s-0.45-1-1-1h-1V8
		H59.04z M32.04,56c0,1.11-0.9,2-2,2s-2-0.9-2-2s0.9-2,2-2l0,0C31.15,54,32.04,54.9,32.04,56z M2.04,2h56v4h-56
		C2.04,6,2.04,2,2.04,2z M56.04,48h-52V8h52V48L56.04,48z"/>
	<path id="Tracé_164" class="st0" d="M27.33,18.71c0.39,0.39,1.02,0.39,1.41,0l0,0l1.29-1.29l1.29,1.29
		c0.39,0.39,1.02,0.4,1.41,0.01s0.4-1.02,0.01-1.41l-0.01-0.01L31.45,16l1.29-1.29c0.38-0.4,0.37-1.03-0.03-1.41
		c-0.39-0.37-1-0.37-1.39,0l-1.29,1.29l-1.29-1.29c-0.4-0.38-1.03-0.37-1.41,0.03c-0.37,0.39-0.37,1,0,1.39l1.3,1.28l-1.29,1.29
		C26.94,17.68,26.95,18.32,27.33,18.71z"/>
	<path id="Tracé_165" class="st0" d="M13.33,18.71c0.39,0.39,1.02,0.39,1.41,0l0,0l1.29-1.29l1.29,1.29
		c0.39,0.39,1.02,0.4,1.41,0.01s0.4-1.02,0.01-1.41l-0.01-0.01L17.45,16l1.29-1.29c0.38-0.4,0.37-1.03-0.03-1.41
		c-0.39-0.37-1-0.37-1.39,0l-1.29,1.29l-1.29-1.29c-0.4-0.38-1.03-0.37-1.41,0.03c-0.37,0.39-0.37,1,0,1.39L14.62,16l-1.29,1.29
		C12.94,17.69,12.94,18.32,13.33,18.71z"/>
	<path id="Tracé_166" class="st0" d="M41.33,18.71c0.39,0.39,1.02,0.39,1.41,0l0,0l1.29-1.29l1.29,1.29
		c0.39,0.39,1.02,0.4,1.41,0.01s0.4-1.02,0.01-1.41l-0.01-0.01L45.45,16l1.29-1.29c0.38-0.4,0.37-1.03-0.03-1.41
		c-0.39-0.37-1-0.37-1.39,0l-1.29,1.29l-1.29-1.29c-0.4-0.38-1.03-0.37-1.41,0.03c-0.37,0.39-0.37,1,0,1.39L42.62,16l-1.29,1.29
		C40.94,17.69,40.94,18.32,41.33,18.71z"/>
	<path id="Tracé_167" class="st0" d="M30.04,36c-2.21,0-4,1.79-4,4s1.79,4,4,4s4-1.79,4-4l0,0C34.04,37.79,32.25,36,30.04,36z
		 M30.04,42c-1.11,0-2-0.9-2-2s0.9-2,2-2s2,0.9,2,2S31.15,42,30.04,42L30.04,42z"/>
	<path id="Tracé_168" class="st0" d="M16.04,36c-2.21,0-4,1.79-4,4s1.79,4,4,4s4-1.79,4-4l0,0C20.04,37.79,18.25,36,16.04,36z
		 M16.04,42c-1.11,0-2-0.9-2-2s0.9-2,2-2c1.11,0,2,0.9,2,2S17.15,42,16.04,42L16.04,42z"/>
	<path id="Tracé_169" class="st0" d="M44.04,44c2.21,0,4-1.79,4-4s-1.79-4-4-4s-4,1.79-4,4l0,0C40.04,42.21,41.83,44,44.04,44z
		 M44.04,38c1.11,0,2,0.9,2,2c0,1.11-0.9,2-2,2c-1.11,0-2-0.9-2-2S42.94,38,44.04,38L44.04,38L44.04,38z"/>
	<path id="Tracé_170" class="st0" d="M49.84,21.02l-0.03,0.01c-0.02,0-0.04,0.01-0.06,0.02l-0.03,0.01
		c-0.02,0.01-0.04,0.01-0.06,0.02s-0.02,0.01-0.03,0.02s-0.04,0.02-0.05,0.03s-0.02,0.01-0.03,0.02c-0.02,0.01-0.03,0.02-0.05,0.03
		c-0.01,0.01-0.03,0.02-0.04,0.03s-0.03,0.02-0.04,0.03c-0.03,0.02-0.05,0.04-0.07,0.07l-3,3c-0.38,0.4-0.37,1.03,0.03,1.41
		c0.39,0.37,1,0.37,1.39,0l1.29-1.29v4.17l-3.71,3.71c-0.39,0.39-0.4,1.02-0.01,1.41c0.39,0.39,1.02,0.4,1.41,0.01l0.01-0.01l4-4
		c0.02-0.02,0.05-0.05,0.07-0.07c0.01-0.01,0.02-0.03,0.03-0.04s0.02-0.03,0.03-0.04s0.02-0.03,0.03-0.05
		c0.01-0.02,0.01-0.02,0.02-0.03c0.01-0.01,0.02-0.04,0.03-0.05c0.01-0.02,0.01-0.02,0.02-0.03s0.01-0.04,0.02-0.06
		c0.01-0.02,0.01-0.02,0.01-0.03c0.01-0.02,0.01-0.04,0.02-0.06c0-0.01,0.01-0.02,0.01-0.03c0.01-0.03,0.01-0.06,0.01-0.08v-0.01
		c0-0.04,0.01-0.07,0-0.11v-4.58l1.29,1.29c0.39,0.39,1.02,0.4,1.41,0.01s0.4-1.02,0.01-1.41l-0.01-0.01l-3-3
		c-0.02-0.02-0.05-0.05-0.07-0.07c-0.01-0.01-0.03-0.02-0.04-0.03s-0.03-0.02-0.04-0.03l-0.05-0.03c-0.01-0.01-0.02-0.01-0.03-0.02
		s-0.04-0.02-0.05-0.03c-0.02-0.01-0.02-0.01-0.03-0.02s-0.04-0.01-0.06-0.02l-0.03-0.01c-0.02-0.01-0.04-0.01-0.06-0.02l-0.03-0.01
		c-0.03-0.01-0.06-0.01-0.08-0.01h-0.01c-0.07-0.01-0.14-0.01-0.2,0h-0.01C49.9,21.01,49.87,21.01,49.84,21.02z"/>
	<path id="Tracé_171" class="st0" d="M7.75,25.71l1.29-1.29V29c0,0.03,0,0.07,0,0.11v0.01c0,0.03,0.01,0.06,0.01,0.08l0.01,0.03
		c0,0.02,0.01,0.04,0.02,0.06c0,0.01,0.01,0.02,0.01,0.03s0.01,0.04,0.02,0.06s0.01,0.02,0.02,0.03s0.02,0.04,0.03,0.05
		c0.01,0.02,0.01,0.02,0.02,0.03s0.02,0.03,0.03,0.05c0.01,0.02,0.02,0.03,0.03,0.04s0.02,0.03,0.03,0.04
		c0.02,0.03,0.04,0.05,0.07,0.07l4,4c0.39,0.39,1.03,0.38,1.41-0.01s0.38-1.02,0-1.41l-3.7-3.71v-4.17l1.29,1.29
		c0.39,0.39,1.02,0.4,1.41,0.01s0.4-1.02,0.01-1.41l-0.01-0.01l-3-3c-0.02-0.02-0.05-0.05-0.07-0.07c-0.01-0.01-0.03-0.02-0.04-0.03
		s-0.03-0.02-0.04-0.03l-0.05-0.03c-0.01-0.01-0.02-0.01-0.03-0.02c-0.01-0.01-0.04-0.02-0.05-0.03l-0.03-0.02
		c-0.02-0.01-0.04-0.01-0.06-0.02l-0.03-0.01C10.33,21,10.31,21,10.29,20.99l-0.03-0.01c-0.03-0.01-0.06-0.01-0.08-0.01h-0.01
		C10.07,21,10.01,21,9.94,21H9.93c-0.03,0-0.06,0.01-0.08,0.01l-0.03,0.01c-0.02,0-0.04,0.01-0.06,0.02l-0.03,0.01
		c-0.02,0.01-0.04,0.01-0.06,0.02l-0.03,0.02c-0.02,0.01-0.04,0.02-0.05,0.03c-0.02,0.01-0.02,0.01-0.03,0.02
		c-0.02,0.01-0.03,0.02-0.05,0.03c-0.01,0.01-0.03,0.02-0.04,0.03l-0.04,0.03c-0.03,0.02-0.05,0.04-0.07,0.07l-3,3
		c-0.38,0.4-0.37,1.03,0.03,1.42C6.75,26.07,7.36,26.07,7.75,25.71L7.75,25.71z"/>
	<path id="Tracé_172" class="st0" d="M27.75,25.71l1.29-1.29V33c0,0.55,0.45,1,1,1s1-0.45,1-1l0,0v-8.59l1.29,1.29
		c0.39,0.39,1.03,0.38,1.41-0.01s0.38-1.02,0-1.41l-3-3c-0.02-0.02-0.05-0.05-0.07-0.07c-0.01-0.01-0.03-0.02-0.04-0.03
		s-0.03-0.02-0.04-0.03l-0.05-0.03c-0.01-0.01-0.02-0.01-0.03-0.02s-0.04-0.02-0.05-0.03l-0.03-0.02c-0.02-0.01-0.04-0.01-0.06-0.02
		l-0.03-0.01c-0.02-0.01-0.04-0.01-0.06-0.02l-0.03-0.01c-0.03-0.01-0.06-0.01-0.08-0.01h-0.01c-0.07-0.01-0.14-0.01-0.2,0h-0.01
		c-0.03,0-0.06,0.01-0.08,0.01L29.84,21c-0.02,0-0.04,0.01-0.06,0.02l-0.03,0.01c-0.02,0.01-0.04,0.01-0.06,0.02l-0.03,0.02
		c-0.02,0.01-0.04,0.02-0.05,0.03c-0.02,0.01-0.02,0.01-0.03,0.02c-0.02,0.01-0.03,0.02-0.05,0.03c-0.01,0.01-0.03,0.02-0.04,0.03
		s-0.03,0.02-0.04,0.03c-0.03,0.02-0.05,0.04-0.07,0.07l-3,3c-0.38,0.4-0.37,1.03,0.03,1.41C26.75,26.08,27.36,26.08,27.75,25.71
		L27.75,25.71z"/>
</g>
</svg>
