<?xml version="1.0" encoding="utf-8"?>
<!-- Generator: Adobe Illustrator 24.0.1, SVG Export Plug-In . SVG Version: 6.00 Build 0)  -->
<svg version="1.1" id="Calque_1" xmlns="http://www.w3.org/2000/svg" xmlns:xlink="http://www.w3.org/1999/xlink" x="0px" y="0px"
	 viewBox="0 0 60 60" style="enable-background:new 0 0 60 60;" xml:space="preserve">
<style type="text/css">
	.st0{fill:#E99283;}
	.st1{fill:#FAEEE5;}
</style>
<circle id="Ellipse_15" class="st0" cx="30" cy="30" r="30"/>
<g id="Groupe_228" transform="translate(-904.979 -783.569)">
	<g id="Groupe_227" transform="translate(923.002 805.478)">
		<path id="Tracé_206" class="st1" d="M29.97,13.5c0.3,0,0.55-0.24,0.55-0.55V-5.72c0-1.22-0.99-2.21-2.22-2.22h-2.73v-0.22
			c0-1-0.82-1.82-1.82-1.82h-0.61c-1,0-1.82,0.81-1.82,1.82v0.22H10.69c-0.3,0-0.55,0.24-0.55,0.55c0,0.3,0.24,0.55,0.55,0.55h10.63
			v1.46c0,1,0.81,1.82,1.82,1.82h0.61c1,0,1.82-0.81,1.82-1.82v-1.46h2.73c0.62,0,1.12,0.5,1.13,1.13v3.36H-3.42v-3.36
			c0-0.62,0.5-1.12,1.13-1.13h2.73v1.46c0,1,0.81,1.82,1.82,1.82h0.61c1,0,1.82-0.81,1.82-1.82v-1.46h2.67
			c0.3,0,0.55-0.24,0.55-0.55c0-0.3-0.24-0.55-0.55-0.55H4.68v-0.22c0-1-0.81-1.82-1.82-1.82H2.26c-1,0-1.82,0.81-1.82,1.82v0.22
			h-2.73c-1.22,0-2.21,0.99-2.22,2.22v25.52h-0.78c-0.7,0-1.27,0.57-1.27,1.28c0,0.05,0,0.09,0.01,0.14
			c0.46,4.27,3.45,4.9,3.57,4.93c0.03,0.01,0.07,0.01,0.11,0.01H28.3c1.22,0,2.21-0.99,2.22-2.22v-7.67c0-0.3-0.24-0.55-0.55-0.55
			c-0.3,0-0.55,0.24-0.55,0.55v7.67c0,0.62-0.5,1.12-1.13,1.13h-0.92c-0.03-0.01-0.05-0.03-0.08-0.04c-0.53-0.19-1-0.52-1.37-0.95
			c-0.72-0.88-1.14-1.97-1.19-3.11c-0.06-0.66-0.61-1.16-1.27-1.16H-3.42V-1.27h32.84v14.22C29.42,13.26,29.66,13.5,29.97,13.5z
			 M24.48-5.38c0,0.4-0.33,0.73-0.73,0.73h-0.61c-0.4,0-0.73-0.33-0.73-0.73v-2.77c0-0.4,0.33-0.73,0.73-0.73h0.61
			c0.4,0,0.73,0.32,0.73,0.73c0,0,0,0,0,0V-5.38z M1.53-8.15c0-0.4,0.33-0.73,0.73-0.73h0.61c0.4,0,0.73,0.33,0.73,0.73v2.77
			c0,0.4-0.33,0.73-0.73,0.73H2.26c-0.4,0-0.73-0.33-0.73-0.73V-8.15z M23.65,21.07c0.06,1.5,0.67,2.92,1.72,4H-2.81
			c-0.54-0.17-1.03-0.48-1.41-0.9c-0.36-0.39-0.65-0.85-0.84-1.35c-0.11-0.26-0.68-1.91-0.22-1.91h28.75
			C23.56,20.9,23.64,20.97,23.65,21.07z"/>
		<path id="Tracé_207" class="st1" d="M0.54,2.03c-1.14,0-2.06,0.92-2.06,2.06s0.92,2.06,2.06,2.06c1.14,0,2.06-0.92,2.06-2.06
			c0,0,0,0,0,0C2.6,2.95,1.68,2.03,0.54,2.03z M0.54,5.07C0,5.07-0.44,4.63-0.44,4.09S0,3.12,0.54,3.12c0.54,0,0.97,0.44,0.97,0.97
			C1.51,4.63,1.08,5.07,0.54,5.07z"/>
		<path id="Tracé_208" class="st1" d="M6.77,6.16c1.14,0,2.06-0.92,2.06-2.06c0-1.14-0.92-2.06-2.06-2.06
			c-1.14,0-2.06,0.92-2.06,2.06c0,0,0,0,0,0C4.71,5.23,5.63,6.16,6.77,6.16z M6.77,3.12c0.54,0,0.97,0.44,0.97,0.97
			c0,0.54-0.44,0.97-0.97,0.97c-0.54,0-0.97-0.44-0.97-0.97C5.8,3.56,6.23,3.12,6.77,3.12z"/>
		<path id="Tracé_209" class="st1" d="M13,2.03c-1.14,0-2.06,0.92-2.06,2.06c0,1.14,0.92,2.06,2.06,2.06
			c1.14,0,2.06-0.92,2.06-2.06c0,0,0,0,0,0C15.06,2.95,14.14,2.03,13,2.03z M13,5.07c-0.54,0-0.97-0.44-0.97-0.97
			c0-0.54,0.44-0.97,0.97-0.97c0.54,0,0.97,0.44,0.97,0.97C13.98,4.63,13.54,5.07,13,5.07z"/>
		<path id="Tracé_210" class="st1" d="M19.23,2.03c-1.14,0-2.06,0.92-2.06,2.06s0.92,2.06,2.06,2.06c1.14,0,2.06-0.92,2.06-2.06
			c0,0,0,0,0,0C21.3,2.95,20.37,2.03,19.23,2.03z M19.23,5.07c-0.54,0-0.97-0.44-0.97-0.97s0.44-0.97,0.97-0.97
			c0.54,0,0.97,0.44,0.97,0.97C20.21,4.63,19.77,5.07,19.23,5.07z"/>
		<path id="Tracé_211" class="st1" d="M25.47,2.03c-1.14,0-2.06,0.92-2.06,2.06s0.92,2.06,2.06,2.06c1.14,0,2.06-0.92,2.06-2.06
			c0,0,0,0,0,0C27.53,2.95,26.61,2.03,25.47,2.03z M25.47,5.07c-0.54,0-0.97-0.44-0.97-0.97c0-0.54,0.44-0.97,0.97-0.97
			c0.54,0,0.97,0.44,0.97,0.97C26.44,4.63,26.01,5.07,25.47,5.07z"/>
		<path id="Tracé_212" class="st1" d="M0.54,7.91c-1.14,0-2.06,0.92-2.06,2.06s0.92,2.06,2.06,2.06S2.6,11.12,2.6,9.98l0,0
			C2.6,8.84,1.68,7.92,0.54,7.91z M0.54,10.95c-0.54,0-0.97-0.44-0.97-0.97c0-0.54,0.44-0.97,0.97-0.97c0.54,0,0.97,0.44,0.97,0.97
			C1.51,10.52,1.08,10.95,0.54,10.95z"/>
		<path id="Tracé_213" class="st1" d="M13,7.91c-1.14,0-2.06,0.92-2.06,2.06c0,1.14,0.92,2.06,2.06,2.06
			c1.14,0,2.06-0.92,2.06-2.06c0,0,0,0,0,0C15.06,8.84,14.14,7.92,13,7.91z M13,10.95c-0.54,0-0.97-0.44-0.97-0.97
			c0-0.54,0.44-0.97,0.97-0.97c0.54,0,0.97,0.44,0.97,0.97C13.98,10.52,13.54,10.95,13,10.95z"/>
		<path id="Tracé_214" class="st1" d="M19.23,7.91c-1.14,0-2.06,0.92-2.06,2.06s0.92,2.06,2.06,2.06c1.14,0,2.06-0.92,2.06-2.06
			l0,0C21.3,8.84,20.37,7.92,19.23,7.91z M19.23,10.95c-0.54,0-0.97-0.44-0.97-0.97c0-0.54,0.44-0.97,0.97-0.97
			c0.54,0,0.97,0.44,0.97,0.97C20.21,10.52,19.77,10.95,19.23,10.95z"/>
		<path id="Tracé_215" class="st1" d="M25.47,7.91c-1.14,0-2.06,0.92-2.06,2.06s0.92,2.06,2.06,2.06s2.06-0.92,2.06-2.06l0,0
			C27.53,8.84,26.61,7.92,25.47,7.91z M25.47,10.95c-0.54,0-0.97-0.44-0.97-0.97c0-0.54,0.44-0.97,0.97-0.97
			c0.54,0,0.97,0.44,0.97,0.97C26.44,10.52,26.01,10.95,25.47,10.95z"/>
		<path id="Tracé_216" class="st1" d="M0.54,13.8c-1.14,0-2.06,0.92-2.06,2.06s0.92,2.06,2.06,2.06S2.6,17,2.6,15.86l0,0
			C2.6,14.72,1.68,13.8,0.54,13.8z M0.54,16.84c-0.54,0-0.97-0.44-0.97-0.97c0-0.54,0.44-0.97,0.97-0.97c0.54,0,0.97,0.44,0.97,0.97
			C1.51,16.4,1.08,16.84,0.54,16.84z"/>
		<path id="Tracé_217" class="st1" d="M6.77,13.8c-1.14,0-2.06,0.92-2.06,2.06c0,1.14,0.92,2.06,2.06,2.06
			c1.14,0,2.06-0.92,2.06-2.06c0,0,0,0,0,0C8.83,14.72,7.91,13.8,6.77,13.8z M6.77,16.84c-0.54,0-0.97-0.44-0.97-0.97
			c0-0.54,0.44-0.97,0.97-0.97c0.54,0,0.97,0.44,0.97,0.97C7.74,16.4,7.31,16.84,6.77,16.84z"/>
		<path id="Tracé_218" class="st1" d="M13,13.8c-1.14,0-2.06,0.92-2.06,2.06c0,1.14,0.92,2.06,2.06,2.06
			c1.14,0,2.06-0.92,2.06-2.06c0,0,0,0,0,0C15.06,14.72,14.14,13.8,13,13.8z M13,16.84c-0.54,0-0.97-0.44-0.97-0.97
			c0-0.54,0.44-0.97,0.97-0.97c0.54,0,0.97,0.44,0.97,0.97C13.98,16.4,13.54,16.84,13,16.84z"/>
		<path id="Tracé_219" class="st1" d="M19.23,13.8c-1.14,0-2.06,0.92-2.06,2.06s0.92,2.06,2.06,2.06c1.14,0,2.06-0.92,2.06-2.06
			l0,0C21.3,14.72,20.37,13.8,19.23,13.8z M19.23,16.84c-0.54,0-0.97-0.44-0.97-0.97c0-0.54,0.44-0.97,0.97-0.97
			c0.54,0,0.97,0.44,0.97,0.97C20.21,16.4,19.77,16.84,19.23,16.84z"/>
		<path id="Tracé_220" class="st1" d="M25.47,13.8c-1.14,0-2.06,0.92-2.06,2.06s0.92,2.06,2.06,2.06s2.06-0.92,2.06-2.06l0,0
			C27.53,14.72,26.61,13.8,25.47,13.8z M25.47,16.84c-0.54,0-0.97-0.44-0.97-0.97c0-0.54,0.44-0.97,0.97-0.97
			c0.54,0,0.97,0.44,0.97,0.97C26.44,16.4,26.01,16.84,25.47,16.84z"/>
		<path id="Tracé_221" class="st1" d="M8.73,8.53C8.54,8.29,8.2,8.25,7.97,8.44L6.77,9.39L5.58,8.44C5.34,8.26,5,8.32,4.82,8.56
			C4.65,8.79,4.69,9.11,4.9,9.29l1,0.8l-1,0.8c-0.24,0.18-0.3,0.52-0.12,0.76c0.18,0.24,0.52,0.3,0.76,0.12
			c0.01-0.01,0.03-0.02,0.04-0.03l1.19-0.95l1.19,0.95c0.23,0.2,0.57,0.17,0.77-0.05c0.2-0.23,0.17-0.57-0.05-0.77
			c-0.01-0.01-0.02-0.02-0.04-0.03l-1-0.8l1-0.8C8.88,9.1,8.92,8.76,8.73,8.53C8.73,8.53,8.73,8.53,8.73,8.53z"/>
	</g>
</g>
</svg>
