<?xml version="1.0" encoding="utf-8"?>
<!-- Generator: Adobe Illustrator 24.0.1, SVG Export Plug-In . SVG Version: 6.00 Build 0)  -->
<svg version="1.1" id="Calque_1" xmlns="http://www.w3.org/2000/svg" xmlns:xlink="http://www.w3.org/1999/xlink" x="0px" y="0px"
	 viewBox="0 0 60 60" style="enable-background:new 0 0 60 60;" xml:space="preserve">
<style type="text/css">
	.st0{fill:#30425A;}
	.st1{fill:#FAEEE5;}
</style>
<g id="Groupe_207" transform="translate(-185 -1597)">
	<circle id="Ellipse_13" class="st0" cx="215" cy="1627" r="30"/>
	<g id="Groupe_186" transform="translate(-41.825 177.181)">
		<g id="Groupe_206" transform="translate(259 1449)">
			<g id="Groupe_187" transform="translate(0)">
				<g id="Groupe_186-2">
					<path id="Tracé_192" class="st1" d="M9.19-5.93c0.35,0,0.63-0.28,0.63-0.63v-6.84c0-1.04-0.85-1.89-1.89-1.89h-22.9
						c-1.04,0-1.89,0.85-1.89,1.89v28.43c0,1.04,0.85,1.89,1.89,1.89h22.9c1.04,0,1.89-0.85,1.89-1.89V10.4
						c0-0.35-0.28-0.63-0.63-0.63c-0.35,0-0.63,0.28-0.63,0.63v4.63c0,0.35-0.28,0.63-0.63,0.63h-22.9c-0.35,0-0.63-0.28-0.63-0.63
						V-13.4c0-0.35,0.28-0.63,0.63-0.63h22.9c0.35,0,0.63,0.28,0.63,0.63v6.84C8.56-6.21,8.84-5.93,9.19-5.93
						C9.19-5.93,9.19-5.93,9.19-5.93z"/>
				</g>
			</g>
			<g id="Groupe_189" transform="translate(15.853 7.134)">
				<g id="Groupe_188">
					<path id="Tracé_193" class="st1" d="M-19.37-19.02c-3.19,0-5.79,2.59-5.79,5.78c0,1.59,0.66,3.12,1.82,4.21
						c0.02,0.02,0.04,0.04,0.07,0.06c2.21,2.02,5.6,2.02,7.81,0c0.02-0.02,0.05-0.04,0.07-0.06c2.32-2.19,2.43-5.85,0.24-8.18
						C-16.25-18.37-17.78-19.02-19.37-19.02z M-19.37-8.71c-0.99,0-1.95-0.32-2.74-0.92c0.86-1.51,2.78-2.04,4.29-1.18
						c0.49,0.28,0.9,0.69,1.18,1.18C-17.42-9.03-18.38-8.7-19.37-8.71z M-20.38-13.49v-0.41c0.01-0.56,0.47-1,1.03-0.98
						c0.54,0.01,0.97,0.45,0.98,0.98v0.41c-0.01,0.56-0.47,1-1.03,0.98C-19.93-12.51-20.36-12.95-20.38-13.49z M-15.73-10.55
						c-0.46-0.68-1.1-1.22-1.85-1.55c0.31-0.4,0.47-0.88,0.47-1.38v-0.41c0-1.25-1.01-2.26-2.26-2.26c-1.25,0-2.26,1.01-2.26,2.26
						v0.41c0,0.5,0.17,0.99,0.47,1.38c-0.75,0.33-1.39,0.87-1.85,1.55c-1.49-2.01-1.06-4.85,0.96-6.33
						c2.01-1.49,4.85-1.06,6.33,0.96C-14.55-14.33-14.55-12.15-15.73-10.55z"/>
				</g>
			</g>
			<g id="Groupe_191" transform="translate(26.685 57.863)">
				<g id="Groupe_190">
					<path id="Tracé_194" class="st1" d="M-26.81-45.59h-3.4c-0.35,0-0.63,0.28-0.63,0.63c0,0.35,0.28,0.63,0.63,0.63c0,0,0,0,0,0
						h3.4c0.35,0,0.63-0.28,0.63-0.63C-26.18-45.31-26.46-45.59-26.81-45.59C-26.8-45.59-26.8-45.59-26.81-45.59z"/>
				</g>
			</g>
			<g id="Groupe_193" transform="translate(15.06 50.465)">
				<g id="Groupe_192">
					<path id="Tracé_195" class="st1" d="M-15.18-41.72h-8.93c-0.35,0-0.63,0.28-0.63,0.63c0,0.35,0.28,0.63,0.63,0.63c0,0,0,0,0,0
						h8.93c0.35,0,0.63-0.28,0.63-0.63C-14.55-41.44-14.83-41.72-15.18-41.72C-15.18-41.72-15.18-41.72-15.18-41.72z"/>
				</g>
			</g>
			<g id="Groupe_195" transform="translate(15.06 43.067)">
				<g id="Groupe_194">
					<path id="Tracé_196" class="st1" d="M-15.18-37.84h-8.93c-0.35,0-0.63,0.28-0.63,0.63c0,0.35,0.28,0.63,0.63,0.63h8.93
						c0.35,0,0.63-0.28,0.63-0.63C-14.55-37.56-14.83-37.84-15.18-37.84z"/>
				</g>
			</g>
			<g id="Groupe_197" transform="translate(9.417 35.669)">
				<g id="Groupe_196">
					<path id="Tracé_197" class="st1" d="M-20.71-33.78c-0.25-0.25-0.64-0.25-0.89,0c-0.25,0.25-0.25,0.64,0,0.89
						c0.25,0.25,0.64,0.25,0.89,0c0.12-0.12,0.18-0.28,0.18-0.44C-20.53-33.51-20.59-33.67-20.71-33.78z"/>
				</g>
			</g>
			<g id="Groupe_199" transform="translate(9.417 43.067)">
				<g id="Groupe_198">
					<path id="Tracé_198" class="st1" d="M-20.71-37.66c-0.25-0.25-0.64-0.25-0.89,0c-0.25,0.25-0.25,0.64,0,0.89
						c0.25,0.25,0.64,0.25,0.89,0c0.12-0.12,0.18-0.28,0.18-0.44C-20.53-37.38-20.59-37.54-20.71-37.66z"/>
				</g>
			</g>
			<g id="Groupe_201" transform="translate(9.417 50.465)">
				<g id="Groupe_200">
					<path id="Tracé_199" class="st1" d="M-20.71-41.54c-0.25-0.25-0.64-0.25-0.89,0c-0.25,0.25-0.25,0.64,0,0.89
						c0.25,0.25,0.64,0.25,0.89,0c0.12-0.12,0.18-0.28,0.18-0.44C-20.53-41.26-20.59-41.42-20.71-41.54z"/>
				</g>
			</g>
			<g id="Groupe_203" transform="translate(15.06 35.669)">
				<g id="Groupe_202">
					<path id="Tracé_200" class="st1" d="M-15.18-33.97h-8.93c-0.35,0-0.63,0.28-0.63,0.63c0,0.35,0.28,0.63,0.63,0.63c0,0,0,0,0,0
						h8.93c0.35,0,0.63-0.28,0.63-0.63C-14.55-33.69-14.83-33.97-15.18-33.97C-15.18-33.97-15.18-33.97-15.18-33.97z"/>
				</g>
			</g>
			<g id="Groupe_205" transform="translate(39.312 16.47)">
				<g id="Groupe_204">
					<path id="Tracé_201" class="st1" d="M-25.28-23.56c-1.26-0.73-2.88-0.3-3.61,0.97c0,0,0,0,0,0L-36.8-8.88
						c-0.04,0.08-0.07,0.16-0.08,0.24l-0.56,4.99c-0.04,0.35,0.21,0.66,0.55,0.7c0.16,0.02,0.32-0.02,0.45-0.12l4.04-2.98
						c0.07-0.05,0.13-0.12,0.17-0.19l7.91-13.71C-23.58-21.21-24.02-22.83-25.28-23.56z M-36.03-4.93l0.29-2.61l1.82,1.05
						L-36.03-4.93z M-33-7.41l-2.4-1.38l6.35-11l2.4,1.38L-33-7.41z M-25.4-20.57l-0.62,1.07l-2.4-1.38l0.62-1.07
						c0.38-0.66,1.23-0.89,1.89-0.51C-25.25-22.08-25.02-21.24-25.4-20.57z"/>
				</g>
			</g>
		</g>
	</g>
</g>
</svg>
