<?xml version="1.0" encoding="utf-8"?>
<!-- Generator: Adobe Illustrator 24.0.1, SVG Export Plug-In . SVG Version: 6.00 Build 0)  -->
<svg version="1.1" id="Calque_1" xmlns="http://www.w3.org/2000/svg" xmlns:xlink="http://www.w3.org/1999/xlink" x="0px" y="0px"
	 viewBox="0 0 60 60" style="enable-background:new 0 0 60 60;" xml:space="preserve">
<style type="text/css">
	.st0{fill:#E99283;}
	.st1{fill:#FAEEE5;}
</style>
<circle id="Ellipse_15" class="st0" cx="30" cy="30" r="30"/>
<g id="Groupe_229" transform="translate(-31.596 19.699)">
	<path id="Tracé_222" class="st1" d="M75.81,3.64c0.31,0,0.56-0.25,0.56-0.56v-3.94c0-0.93-0.76-1.69-1.69-1.69h-0.56v-1.51
		c0-0.93-0.76-1.69-1.69-1.69h-0.56v-1.51c0-0.93-0.76-1.69-1.69-1.69H48.51c-0.93,0-1.69,0.76-1.69,1.69v3.11
		c0,0.31,0.25,0.56,0.56,0.56s0.56-0.25,0.56-0.56v-3.11c0-0.31,0.25-0.56,0.56-0.56h21.66c0.31,0,0.56,0.25,0.57,0.56v28.73
		c0,0.31-0.25,0.56-0.56,0.56H48.51c-0.31,0-0.56-0.25-0.56-0.56V-1.74c0-0.31-0.25-0.56-0.56-0.56s-0.56,0.25-0.56,0.56v23.21
		c0,0.93,0.76,1.69,1.69,1.69h0.56v1.5c0,0.93,0.76,1.69,1.69,1.69h0.56v1.51c0,0.93,0.76,1.69,1.69,1.69h21.67
		c0.93,0,1.69-0.76,1.69-1.69V5.46c0-0.31-0.25-0.56-0.56-0.56c-0.31,0-0.56,0.25-0.56,0.56v22.4c0,0.31-0.25,0.56-0.56,0.56H53.02
		c-0.31,0-0.56-0.25-0.56-0.56v-1.5H66.4c0.31,0,0.56-0.25,0.56-0.56s-0.25-0.56-0.56-0.56H50.77c-0.31,0-0.56-0.25-0.56-0.56v-1.5
		h19.97c0.93,0,1.69-0.76,1.69-1.69v-26.1h0.56c0.31,0,0.56,0.25,0.56,0.56v28.73c0,0.31-0.25,0.56-0.56,0.56h-3.63
		c-0.31,0-0.56,0.25-0.56,0.56c0,0.31,0.25,0.56,0.56,0.56c0,0,0,0,0,0h3.63c0.93,0,1.69-0.76,1.69-1.69v-26.1h0.56
		c0.31,0,0.56,0.25,0.56,0.56v3.94C75.25,3.38,75.5,3.63,75.81,3.64C75.81,3.64,75.81,3.64,75.81,3.64z"/>
	<path id="Tracé_223" class="st1" d="M50.62,0.37v3.91c0,0.48,0.39,0.86,0.87,0.87h3.91c0.48,0,0.86-0.39,0.87-0.87V1.38l1.16-0.99
		c0.24-0.2,0.27-0.56,0.06-0.8s-0.56-0.27-0.8-0.06l-0.52,0.44c-0.15-0.29-0.44-0.47-0.77-0.47h-3.91C51-0.49,50.62-0.1,50.62,0.37z
		 M51.74,0.64h3.38v0.22l-1.12,0.96l-0.53-0.58c-0.2-0.24-0.56-0.27-0.8-0.06s-0.27,0.56-0.06,0.8c0.01,0.01,0.02,0.02,0.03,0.03
		l0.9,0.98c0.21,0.22,0.55,0.24,0.78,0.05l0.8-0.68v1.68h-3.38V0.64L51.74,0.64z"/>
	<path id="Tracé_224" class="st1" d="M67.5,0.41h-9.03c-0.31,0-0.56,0.25-0.56,0.56c0,0.31,0.25,0.56,0.56,0.56h9.03
		c0.31,0,0.56-0.25,0.56-0.56C68.06,0.66,67.81,0.41,67.5,0.41L67.5,0.41z"/>
	<path id="Tracé_225" class="st1" d="M67.5,2.82h-9.03c-0.31,0-0.56,0.25-0.57,0.56c0,0.31,0.25,0.56,0.56,0.57c0,0,0,0,0,0h9.03
		c0.31,0,0.56-0.25,0.57-0.56C68.07,3.07,67.81,2.82,67.5,2.82C67.5,2.82,67.5,2.82,67.5,2.82L67.5,2.82z"/>
	<path id="Tracé_226" class="st1" d="M50.62,11.58c0,0.48,0.39,0.86,0.87,0.87h3.91c0.48,0,0.86-0.39,0.87-0.87V7.67
		c0-0.48-0.39-0.86-0.87-0.87h-3.91c-0.48,0-0.86,0.39-0.87,0.87V11.58z M51.74,7.93h3.38v3.38h-3.38V7.93z"/>
	<path id="Tracé_227" class="st1" d="M67.5,7.71h-9.03c-0.31,0-0.56,0.25-0.57,0.56c0,0.31,0.25,0.56,0.56,0.57c0,0,0,0,0,0h9.03
		c0.31,0,0.56-0.25,0.57-0.56C68.07,7.96,67.81,7.71,67.5,7.71C67.5,7.71,67.5,7.71,67.5,7.71L67.5,7.71z"/>
	<path id="Tracé_228" class="st1" d="M67.5,10.11h-9.03c-0.31,0-0.56,0.25-0.57,0.56c0,0.31,0.25,0.56,0.56,0.57c0,0,0,0,0,0h9.03
		c0.31,0,0.56-0.25,0.57-0.56C68.07,10.37,67.81,10.11,67.5,10.11C67.5,10.11,67.5,10.11,67.5,10.11L67.5,10.11z"/>
	<path id="Tracé_229" class="st1" d="M50.62,18.88c0,0.48,0.39,0.86,0.87,0.87h3.91c0.48,0,0.86-0.39,0.87-0.87v-3.91
		c0-0.48-0.39-0.86-0.87-0.87h-3.91c-0.48,0-0.86,0.39-0.87,0.87V18.88z M51.74,15.23h3.38v3.38h-3.38V15.23z"/>
	<path id="Tracé_230" class="st1" d="M67.5,15h-9.03c-0.31,0-0.56,0.25-0.57,0.56c0,0.31,0.25,0.56,0.56,0.57c0,0,0,0,0,0h9.03
		c0.31,0,0.56-0.25,0.57-0.56C68.07,15.26,67.81,15,67.5,15C67.5,15,67.5,15,67.5,15L67.5,15z"/>
	<path id="Tracé_231" class="st1" d="M67.5,17.41h-9.03c-0.31,0-0.56,0.25-0.57,0.56c0,0.31,0.25,0.56,0.56,0.57c0,0,0,0,0,0h9.03
		c0.31,0,0.56-0.25,0.57-0.56C68.07,17.66,67.81,17.41,67.5,17.41C67.5,17.41,67.5,17.41,67.5,17.41L67.5,17.41z"/>
	<path id="Tracé_232" class="st1" d="M64.64-6.28H54.26c-1.04,0-1.88,0.84-1.88,1.88c0,1.04,0.84,1.88,1.88,1.88h10.38
		c1.04,0,1.88-0.84,1.88-1.88C66.52-5.44,65.68-6.28,64.64-6.28L64.64-6.28z M64.64-3.65H54.26c-0.42,0-0.75-0.34-0.75-0.75
		c0-0.42,0.34-0.75,0.75-0.75h10.38c0.42,0,0.75,0.34,0.75,0.75S65.06-3.65,64.64-3.65C64.64-3.65,64.64-3.65,64.64-3.65L64.64-3.65
		z"/>
</g>
</svg>
