<?xml version="1.0" encoding="utf-8"?>
<!-- Generator: Adobe Illustrator 24.0.1, SVG Export Plug-In . SVG Version: 6.00 Build 0)  -->
<svg version="1.1" id="Calque_1" xmlns="http://www.w3.org/2000/svg" xmlns:xlink="http://www.w3.org/1999/xlink" x="0px" y="0px"
	 viewBox="0 0 60 60" style="enable-background:new 0 0 60 60;" xml:space="preserve">
<style type="text/css">
	.st0{fill:#30425A;}
	.st1{fill:#FAEEE5;}
</style>
<g id="Groupe_183" transform="translate(-992 -613)">
	<circle id="Ellipse_13" class="st0" cx="1022" cy="643" r="30"/>
	<g id="Groupe_173" transform="translate(202.833 -66.719)">
		<g id="Groupe_172" transform="translate(822 709)">
			<g id="Groupe_154" transform="translate(0 0)">
				<g id="Groupe_153">
					<path id="Tracé_179" class="st1" d="M10.9,0.09H6.26v-14.8c0-0.35-0.28-0.63-0.63-0.63c-0.17,0-0.33,0.07-0.44,0.18
						l-1.78,1.78l-1.78-1.78c-0.24-0.24-0.64-0.25-0.89,0c0,0,0,0,0,0l-1.78,1.78l-1.78-1.78c-0.24-0.24-0.64-0.25-0.89,0
						c0,0,0,0,0,0l-1.78,1.78l-1.78-1.78c-0.24-0.24-0.64-0.25-0.89,0c0,0,0,0,0,0l-1.78,1.78l-1.78-1.78
						c-0.24-0.24-0.64-0.25-0.89,0c0,0,0,0,0,0l-1.78,1.78l-1.78-1.78c-0.25-0.24-0.64-0.24-0.89,0c-0.12,0.12-0.19,0.29-0.18,0.46
						v28.21c0,1.8,1.46,3.26,3.26,3.26h22.2c1.8,0,3.26-1.46,3.26-3.26V0.72C11.53,0.37,11.25,0.09,10.9,0.09
						C10.9,0.09,10.9,0.09,10.9,0.09z M-13.94,15.52c-1.11,0-2.01-0.9-2.01-2.01v-26.71l1.15,1.15c0.24,0.24,0.64,0.25,0.89,0
						c0,0,0,0,0,0l1.78-1.78l1.78,1.78c0.24,0.24,0.64,0.25,0.89,0c0,0,0,0,0,0l1.78-1.78l1.78,1.78c0.24,0.24,0.64,0.25,0.89,0
						c0,0,0,0,0,0l1.78-1.78l1.78,1.78c0.24,0.24,0.64,0.25,0.89,0c0,0,0,0,0,0l1.77-1.78l1.78,1.78c0.24,0.24,0.64,0.25,0.89,0
						c0,0,0,0,0,0L5-13.19V0.72c0,0.01,0,0.01,0,0.02v12.78c0,0.73,0.24,1.43,0.69,2.01H-13.94z M10.27,13.51
						c-0.02,1.11-0.93,1.99-2.04,1.98c-1.08-0.02-1.96-0.89-1.98-1.98V1.35h4.01V13.51L10.27,13.51z"/>
				</g>
			</g>
			<g id="Groupe_156" transform="translate(33.978 20.924)">
				<g id="Groupe_155">
					<path id="Tracé_180" class="st1" d="M-33.15-26.3h-1.22c-0.35,0-0.63,0.28-0.63,0.63c0,0.35,0.28,0.63,0.63,0.63h1.22
						c0.35,0,0.63-0.28,0.63-0.63C-32.52-26.02-32.8-26.3-33.15-26.3z"/>
				</g>
			</g>
			<g id="Groupe_158" transform="translate(10.079 20.924)">
				<g id="Groupe_157">
					<path id="Tracé_181" class="st1" d="M-20.63-26.3h-1.22c-0.35,0-0.63,0.28-0.63,0.63c0,0.35,0.28,0.63,0.63,0.63h1.22
						c0.35,0,0.63-0.28,0.63-0.63C-20-26.02-20.28-26.3-20.63-26.3L-20.63-26.3z"/>
				</g>
			</g>
			<g id="Groupe_160" transform="translate(16.345 35.564)">
				<g id="Groupe_159">
					<path id="Tracé_182" class="st1" d="M-15.2-33.97h-9.94c-0.35,0-0.63,0.28-0.63,0.63c0,0.35,0.28,0.63,0.63,0.63h9.94
						c0.35,0,0.63-0.28,0.63-0.63C-14.57-33.69-14.85-33.97-15.2-33.97L-15.2-33.97z"/>
				</g>
			</g>
			<g id="Groupe_162" transform="translate(9.413 35.564)">
				<g id="Groupe_161">
					<path id="Tracé_183" class="st1" d="M-21.06-33.78c-0.24-0.24-0.64-0.24-0.89,0c-0.24,0.24-0.24,0.64,0,0.89
						c0.24,0.24,0.64,0.24,0.89,0c0.12-0.12,0.18-0.28,0.18-0.44C-20.88-33.51-20.94-33.66-21.06-33.78z"/>
				</g>
			</g>
			<g id="Groupe_164" transform="translate(16.345 44.257)">
				<g id="Groupe_163">
					<path id="Tracé_184" class="st1" d="M-15.2-38.52h-9.94c-0.35,0-0.63,0.28-0.63,0.63c0,0.35,0.28,0.63,0.63,0.63h9.94
						c0.35,0,0.63-0.28,0.63-0.63C-14.57-38.24-14.85-38.52-15.2-38.52L-15.2-38.52z"/>
				</g>
			</g>
			<g id="Groupe_166" transform="translate(9.413 44.257)">
				<g id="Groupe_165">
					<path id="Tracé_185" class="st1" d="M-21.06-38.34c-0.24-0.24-0.64-0.24-0.89,0c-0.24,0.24-0.24,0.64,0,0.89
						c0.24,0.24,0.64,0.24,0.89,0c0.12-0.12,0.18-0.28,0.18-0.44C-20.88-38.06-20.94-38.22-21.06-38.34z"/>
				</g>
			</g>
			<g id="Groupe_168" transform="translate(16.345 52.949)">
				<g id="Groupe_167">
					<path id="Tracé_186" class="st1" d="M-15.2-43.07h-9.94c-0.35,0-0.63,0.28-0.63,0.63c0,0.35,0.28,0.63,0.63,0.63h9.94
						c0.35,0,0.63-0.28,0.63-0.63C-14.57-42.79-14.85-43.07-15.2-43.07L-15.2-43.07z"/>
				</g>
			</g>
			<g id="Groupe_170" transform="translate(9.413 52.949)">
				<g id="Groupe_169">
					<path id="Tracé_187" class="st1" d="M-21.06-42.89c-0.24-0.24-0.64-0.24-0.89,0c-0.24,0.24-0.24,0.64,0,0.89
						c0.24,0.24,0.64,0.24,0.89,0c0.12-0.12,0.18-0.28,0.18-0.44C-20.88-42.61-20.94-42.77-21.06-42.89z"/>
				</g>
			</g>
			<g id="Groupe_171" transform="translate(18.458 13.326)">
				<path id="Tracé_188" class="st1" d="M-25.4-19.42h2.16c0.27,0,0.49,0.22,0.49,0.49c0,0.05-0.01,0.1-0.02,0.15l0,0
					c-0.06,0.21-0.25,0.35-0.47,0.35h-2.16v0.67h1.67c0.27,0,0.49,0.22,0.49,0.49c0,0.05-0.01,0.1-0.02,0.15l0,0
					c-0.06,0.21-0.25,0.35-0.47,0.35h-1.67v0.07c-0.02,0.38,0.1,0.75,0.34,1.03c0.25,0.25,0.59,0.39,0.95,0.37
					c0.3,0.01,0.6-0.08,0.84-0.27c0.12-0.1,0.23-0.23,0.3-0.37c0.11-0.21,0.33-0.34,0.57-0.33h0.16c0.35,0,0.64,0.29,0.64,0.64
					c0,0.1-0.02,0.2-0.07,0.29l0,0.01c-0.15,0.28-0.34,0.53-0.58,0.74c-0.24,0.21-0.53,0.38-0.83,0.49
					c-0.33,0.12-0.68,0.18-1.03,0.17c-0.38,0-0.76-0.06-1.12-0.2c-0.32-0.12-0.62-0.31-0.87-0.55c-0.25-0.25-0.44-0.54-0.57-0.87
					c-0.14-0.36-0.21-0.74-0.2-1.13v-2.88c0-0.38,0.06-0.76,0.2-1.12c0.13-0.32,0.32-0.62,0.57-0.87c0.25-0.25,0.54-0.44,0.87-0.56
					c0.36-0.14,0.74-0.2,1.12-0.2c0.35,0,0.7,0.06,1.03,0.17c0.3,0.11,0.59,0.27,0.83,0.49c0.24,0.21,0.43,0.46,0.58,0.74l0,0.01
					c0.16,0.31,0.04,0.7-0.27,0.86c-0.09,0.05-0.19,0.07-0.29,0.07h-0.16c-0.24,0-0.46-0.13-0.57-0.33
					c-0.08-0.14-0.18-0.27-0.3-0.37c-0.24-0.19-0.54-0.28-0.84-0.27c-0.35-0.02-0.7,0.12-0.95,0.37c-0.24,0.29-0.37,0.66-0.34,1.03
					L-25.4-19.42z"/>
			</g>
		</g>
	</g>
</g>
</svg>
