<?xml version="1.0" encoding="utf-8"?>
<!-- Generator: Adobe Illustrator 24.0.1, SVG Export Plug-In . SVG Version: 6.00 Build 0)  -->
<svg version="1.1" id="Calque_1" xmlns="http://www.w3.org/2000/svg" xmlns:xlink="http://www.w3.org/1999/xlink" x="0px" y="0px"
	 viewBox="0 0 60 60" style="enable-background:new 0 0 60 60;" xml:space="preserve">
<style type="text/css">
	.st0{fill:#E99283;}
	.st1{fill:#FAEEE5;}
</style>
<circle id="Ellipse_15" class="st0" cx="30" cy="30" r="30"/>
<g id="Groupe_230" transform="translate(17.003 16.503)">
	<path id="Tracé_233" class="st1" d="M27.85-1.35C19.56-9.46,6.26-9.32-1.85-1.03c-7.99,8.16-7.99,21.21,0,29.37
		c8.29,8.11,21.59,7.97,29.7-0.32C35.83,19.86,35.83,6.81,27.85-1.35z M26.92,27.42c-7.69,7.69-20.15,7.69-27.84,0
		s-7.69-20.15,0-27.84c7.69-7.69,20.15-7.69,27.84,0S34.61,19.73,26.92,27.42L26.92,27.42z"/>
	<path id="Tracé_234" class="st1" d="M-4.06,13.5C-4.06,4.07,3.58-3.57,13-3.56c3.37,0,6.67,1,9.47,2.87
		c0.3,0.2,0.71,0.12,0.91-0.18s0.12-0.71-0.18-0.91C14.77-7.42,3.36-5.15-2.28,3.29C-6.94,10.26-6.29,19.5-0.7,25.75
		c0.24,0.27,0.66,0.29,0.93,0.05c0.27-0.24,0.29-0.66,0.05-0.93C-2.52,21.75-4.07,17.69-4.06,13.5z"/>
	<path id="Tracé_235" class="st1" d="M28.28,3.29c-0.2-0.3-0.61-0.38-0.91-0.18c-0.3,0.2-0.38,0.61-0.18,0.91
		c5.23,7.84,3.12,18.43-4.71,23.67c-6.22,4.15-14.41,3.77-20.22-0.93c-0.28-0.23-0.69-0.19-0.92,0.1c-0.23,0.28-0.19,0.69,0.1,0.92
		l0,0c7.88,6.39,19.46,5.18,25.85-2.71C32.34,18.81,32.75,9.98,28.28,3.29L28.28,3.29z"/>
	<path id="Tracé_236" class="st1" d="M24.37,0.78c0.44,0.4,0.86,0.81,1.26,1.25c0.24,0.27,0.66,0.29,0.93,0.05
		c0.27-0.24,0.29-0.66,0.05-0.93c-0.43-0.47-0.88-0.92-1.36-1.35c-0.27-0.24-0.68-0.22-0.93,0.05C24.08,0.12,24.1,0.54,24.37,0.78
		L24.37,0.78L24.37,0.78z"/>
	<path id="Tracé_237" class="st1" d="M13,1.03c0.36,0,0.65-0.29,0.65-0.65V-1.6c0-0.36-0.29-0.66-0.66-0.66s-0.66,0.29-0.66,0.66
		v1.97C12.34,0.73,12.63,1.03,13,1.03C12.99,1.03,12.99,1.03,13,1.03z"/>
	<path id="Tracé_238" class="st1" d="M12.34,26.62v1.97c0,0.36,0.29,0.66,0.66,0.66c0.36,0,0.66-0.29,0.66-0.66l0,0v-1.97
		c0-0.36-0.29-0.66-0.66-0.66C12.63,25.96,12.34,26.26,12.34,26.62z"/>
	<path id="Tracé_239" class="st1" d="M0.53,13.5c0-0.36-0.29-0.65-0.65-0.65H-2.1c-0.36,0-0.66,0.29-0.66,0.66s0.29,0.66,0.66,0.66
		h1.97C0.23,14.16,0.53,13.86,0.53,13.5C0.53,13.5,0.53,13.5,0.53,13.5z"/>
	<path id="Tracé_240" class="st1" d="M25.47,13.5c0,0.36,0.29,0.65,0.65,0.65l0,0h1.97c0.36,0,0.66-0.29,0.66-0.66
		s-0.29-0.66-0.66-0.66l0,0h-1.97C25.76,12.84,25.47,13.13,25.47,13.5C25.47,13.49,25.47,13.49,25.47,13.5z"/>
	<path id="Tracé_241" class="st1" d="M7,1.8L6.02,0.1c-0.18-0.31-0.58-0.42-0.9-0.24S4.7,0.44,4.88,0.75l0,0l0.98,1.71
		c0.18,0.31,0.58,0.42,0.9,0.24C7.08,2.52,7.18,2.12,7,1.8z"/>
	<path id="Tracé_242" class="st1" d="M20.13,24.53c-0.18-0.31-0.58-0.42-0.9-0.24c-0.31,0.18-0.42,0.58-0.24,0.9l0.98,1.71
		c0.18,0.31,0.58,0.42,0.9,0.24c0.31-0.18,0.42-0.58,0.24-0.9L20.13,24.53z"/>
	<path id="Tracé_243" class="st1" d="M-0.07,21.7c0.11,0,0.23-0.03,0.33-0.09l1.71-0.98c0.31-0.18,0.42-0.58,0.24-0.9
		c-0.18-0.31-0.58-0.42-0.9-0.24l0,0l-1.71,0.98c-0.31,0.18-0.43,0.58-0.25,0.89C-0.53,21.57-0.31,21.7-0.07,21.7L-0.07,21.7z"/>
	<path id="Tracé_244" class="st1" d="M24.36,7.59c0.11,0,0.23-0.03,0.33-0.09l1.71-0.98c0.31-0.18,0.42-0.58,0.24-0.9
		c-0.18-0.31-0.58-0.42-0.9-0.24l-1.71,0.98c-0.31,0.18-0.43,0.58-0.25,0.89C23.9,7.47,24.13,7.59,24.36,7.59z"/>
	<path id="Tracé_245" class="st1" d="M20.87-0.14c-0.31-0.18-0.71-0.08-0.89,0.24c0,0,0,0,0,0L18.99,1.8
		c-0.18,0.31-0.07,0.71,0.24,0.9c0.31,0.18,0.71,0.07,0.9-0.24l0,0l0.98-1.71C21.29,0.44,21.19,0.04,20.87-0.14
		C20.87-0.14,20.87-0.14,20.87-0.14z"/>
	<path id="Tracé_246" class="st1" d="M6.76,24.29c-0.31-0.18-0.71-0.08-0.89,0.24c0,0,0,0,0,0l-0.98,1.71
		c-0.18,0.31-0.07,0.71,0.24,0.9c0.31,0.18,0.71,0.07,0.9-0.24L7,25.19C7.18,24.88,7.08,24.48,6.76,24.29
		C6.76,24.29,6.76,24.29,6.76,24.29z"/>
	<path id="Tracé_247" class="st1" d="M24.03,20.63l1.71,0.98c0.31,0.18,0.71,0.07,0.9-0.24c0.18-0.31,0.07-0.71-0.24-0.9
		l-1.71-0.98c-0.31-0.18-0.71-0.07-0.9,0.24C23.61,20.05,23.72,20.45,24.03,20.63z"/>
	<path id="Tracé_248" class="st1" d="M1.96,6.37L0.25,5.38c-0.31-0.18-0.71-0.07-0.9,0.24s-0.07,0.71,0.24,0.9l0,0L1.3,7.5
		c0.31,0.18,0.71,0.07,0.9-0.24C2.38,6.95,2.27,6.55,1.96,6.37z"/>
	<path id="Tracé_249" class="st1" d="M17.57,22.06c0.36,0,0.65-0.29,0.66-0.65c0-0.12-0.03-0.23-0.09-0.33l-3.64-6.31
		c0.71-0.82,0.61-2.07-0.21-2.77c-0.18-0.16-0.4-0.28-0.63-0.36V3c0-0.36-0.29-0.66-0.66-0.66S12.34,2.63,12.34,3v8.64
		c-1.03,0.36-1.56,1.48-1.2,2.51c0.32,0.92,1.27,1.46,2.22,1.28l3.64,6.3C17.11,21.94,17.33,22.07,17.57,22.06z M12.34,13.5
		c0-0.36,0.29-0.65,0.65-0.65c0.36,0,0.65,0.29,0.65,0.65c0,0.36-0.29,0.65-0.65,0.65l0,0C12.63,14.15,12.34,13.86,12.34,13.5
		L12.34,13.5z"/>
</g>
</svg>
