<?xml version="1.0" encoding="utf-8"?>
<!-- Generator: Adobe Illustrator 24.0.1, SVG Export Plug-In . SVG Version: 6.00 Build 0)  -->
<svg version="1.1" id="Calque_1" xmlns="http://www.w3.org/2000/svg" xmlns:xlink="http://www.w3.org/1999/xlink" x="0px" y="0px"
	 viewBox="0 0 60 60" style="enable-background:new 0 0 60 60;" xml:space="preserve">
<style type="text/css">
	.st0{fill:#E99283;}
</style>
<g id="picto_creation_entreprise_HOVER" transform="translate(-0.003)">
	<g id="Groupe_87" transform="translate(0.003 0)">
		<g id="Groupe_86" transform="translate(0 0)">
			<path id="Tracé_151" class="st0" d="M59.66,1.22C59.6,0.7,59.19,0.3,58.68,0.23c-9.47-1.17-18.95,2.09-25.7,8.84l-7.56,7.55
				l-10.9,1.41c-0.25,0.03-0.48,0.15-0.66,0.32L3.35,28.87c-0.44,0.44-0.44,1.16,0,1.6c0.16,0.16,0.37,0.27,0.6,0.31l7.95,1.47
				l1.56,1.56l-3.33,1.8c-0.55,0.3-0.75,0.98-0.46,1.53c0.05,0.1,0.12,0.19,0.2,0.26l12.61,12.61c0.21,0.21,0.5,0.33,0.8,0.33
				c0.05,0,0.11,0,0.16-0.01c0.35-0.05,0.66-0.27,0.83-0.58l1.8-3.33l1.56,1.56l1.47,7.95c0.08,0.41,0.38,0.75,0.78,0.88
				c0.11,0.03,0.22,0.05,0.34,0.05c0.3,0,0.59-0.12,0.8-0.33l10.51-10.52c0.18-0.18,0.29-0.41,0.32-0.66l1.41-10.91l7.55-7.55
				c3.32-3.33,5.85-7.38,7.39-11.83C59.74,10.64,60.23,5.89,59.66,1.22z M12.06,29.98l-5.59-1.04l8.72-8.72l7.61-0.98L12.06,29.98z
				 M23.01,47.35L12.54,36.89l2.58-1.4l9.28,9.28L23.01,47.35z M39.67,44.71l-8.72,8.72l-1.04-5.59L40.65,37.1L39.67,44.71z
				 M49.22,25.32L28.69,45.85L14.05,31.21l20.53-20.54c3-2.99,6.63-5.29,10.62-6.72c1.05,5.44,5.3,9.69,10.74,10.74
				C54.51,18.68,52.22,22.31,49.22,25.32z M56.63,12.51c-4.73-0.8-8.44-4.51-9.25-9.24c3.3-0.89,6.72-1.19,10.13-0.88
				C57.81,5.79,57.52,9.22,56.63,12.51z"/>
			<path id="Tracé_152" class="st0" d="M33.48,16.7c-2.67,2.7-2.65,7.06,0.06,9.73c2.68,2.65,6.99,2.65,9.67,0l0,0
				c2.67-2.7,2.65-7.06-0.06-9.73C40.47,14.05,36.16,14.05,33.48,16.7z M41.6,24.82c-1.8,1.8-4.72,1.79-6.51-0.01
				c-1.8-1.8-1.79-4.72,0.01-6.51s4.71-1.79,6.5,0C43.4,20.1,43.39,23.02,41.6,24.82L41.6,24.82z"/>
			<path id="Tracé_153" class="st0" d="M14.89,45.22c-0.44-0.44-1.16-0.44-1.6,0l-9.73,9.73c-0.45,0.43-0.47,1.15-0.04,1.6
				c0.43,0.45,1.15,0.47,1.6,0.04c0.01-0.01,0.03-0.03,0.04-0.04l9.73-9.73C15.33,46.38,15.33,45.67,14.89,45.22L14.89,45.22z"/>
			<path id="Tracé_154" class="st0" d="M16.39,48.32l-4.38,4.38c-0.45,0.43-0.47,1.15-0.04,1.6c0.43,0.45,1.15,0.47,1.6,0.04
				c0.01-0.01,0.03-0.03,0.04-0.04l4.38-4.38c0.43-0.45,0.42-1.17-0.04-1.6C17.51,47.9,16.82,47.9,16.39,48.32z"/>
			<path id="Tracé_155" class="st0" d="M10.47,54.71c-0.63,0-1.14,0.51-1.14,1.13c0,0.63,0.51,1.14,1.13,1.14
				c0.63,0,1.14-0.51,1.14-1.13c0-0.15-0.03-0.3-0.09-0.44C11.34,54.99,10.93,54.71,10.47,54.71z"/>
			<path id="Tracé_156" class="st0" d="M11.51,55.41C11.54,55.47,11.49,55.34,11.51,55.41z"/>
			<path id="Tracé_157" class="st0" d="M7.26,57.44l-0.61,0.6c-0.45,0.43-0.47,1.15-0.04,1.6c0.43,0.45,1.15,0.47,1.6,0.04
				c0.01-0.01,0.03-0.03,0.04-0.04l0.6-0.6c0.45-0.43,0.47-1.15,0.04-1.6c-0.43-0.45-1.15-0.47-1.6-0.04
				C7.28,57.42,7.27,57.43,7.26,57.44L7.26,57.44z"/>
			<path id="Tracé_158" class="st0" d="M6.44,47.46c-0.44-0.44-1.16-0.44-1.6,0l0,0l-4.38,4.38c-0.45,0.43-0.47,1.15-0.04,1.6
				c0.43,0.45,1.15,0.47,1.6,0.04c0.01-0.01,0.03-0.03,0.04-0.04l4.38-4.38C6.89,48.62,6.89,47.91,6.44,47.46L6.44,47.46z"/>
			<path id="Tracé_159" class="st0" d="M8.25,47.03c0.61-0.15,0.98-0.77,0.83-1.37c-0.15-0.61-0.77-0.98-1.37-0.83
				C7.1,44.98,6.73,45.6,6.88,46.2c0.03,0.12,0.08,0.24,0.15,0.35c-0.01-0.01-0.02-0.02,0,0c0.02,0.03,0.01,0.02,0,0
				C7.31,46.96,7.79,47.14,8.25,47.03z"/>
			<path id="Tracé_160" class="st0" d="M11.19,44.33l0.6-0.6c0.43-0.45,0.42-1.17-0.04-1.6c-0.44-0.42-1.13-0.42-1.57,0l-0.6,0.6
				c-0.45,0.43-0.47,1.15-0.04,1.6c0.43,0.45,1.15,0.47,1.6,0.04C11.16,44.35,11.17,44.34,11.19,44.33z"/>
		</g>
	</g>
</g>
</svg>
