<?xml version="1.0" encoding="utf-8"?>
<!-- Generator: Adobe Illustrator 24.0.1, SVG Export Plug-In . SVG Version: 6.00 Build 0)  -->
<svg version="1.1" id="Calque_1" xmlns="http://www.w3.org/2000/svg" xmlns:xlink="http://www.w3.org/1999/xlink" x="0px" y="0px"
	 viewBox="0 0 60 60" style="enable-background:new 0 0 60 60;" xml:space="preserve">
<style type="text/css">
	.st0{fill:#E99283;}
</style>
<g>
	<g id="Groupe_61">
		<g id="Groupe_60">
			<path id="Tracé_125" class="st0" d="M59.14,48.04h-1.76V33.98c0-0.49-0.39-0.88-0.88-0.88s-0.88,0.39-0.88,0.88v14.06H54v-7.2
				c0-0.49-0.39-0.88-0.88-0.88s-0.88,0.39-0.88,0.88v7.2H7.76v-5.03c0-0.49-0.39-0.88-0.88-0.88S6,42.52,6,43.01l0,0v5.03H4.38
				V21.36c0-1.46,1.18-2.64,2.64-2.64h2.27c-0.22,0.5-0.39,1.02-0.5,1.55H6.88C6.39,20.27,6,20.66,6,21.15V39
				c0,0.49,0.39,0.88,0.88,0.88S7.76,39.49,7.76,39V22.03h0.9c0.17,4.07,3.6,7.23,7.67,7.07c3.84-0.16,6.91-3.23,7.07-7.07h13.23
				c0.17,4.07,3.6,7.23,7.67,7.07c3.84-0.16,6.91-3.23,7.07-7.07h0.9v14.81c0,0.49,0.39,0.88,0.88,0.88S54,37.32,54,36.83V21.15
				c0-0.49-0.39-0.88-0.88-0.88H51.2c-0.11-0.53-0.27-1.05-0.5-1.55h2.27c1.46,0,2.64,1.18,2.64,2.64v8.61
				c0,0.49,0.39,0.88,0.88,0.88s0.88-0.39,0.88-0.88l0,0v-8.61c0-2.43-1.97-4.4-4.4-4.4h-3.38c-2.62-3.11-7.27-3.5-10.37-0.88
				c-0.32,0.27-0.61,0.56-0.88,0.88h-2.71c2.62-3.12,2.21-7.77-0.91-10.39s-7.77-2.21-10.39,0.91c-2.3,2.74-2.3,6.74,0,9.48h-2.71
				c-2.62-3.11-7.27-3.5-10.37-0.88c-0.32,0.27-0.61,0.56-0.88,0.88H7.01c-2.43,0-4.4,1.97-4.4,4.4v26.68H0.86
				c-0.49,0-0.88,0.39-0.88,0.88v3.02c0,1.78,1.44,3.22,3.22,3.22h53.6c1.78,0,3.22-1.44,3.22-3.22v-3.02
				C60.02,48.43,59.63,48.04,59.14,48.04z M43.98,16.1c3.1,0,5.61,2.51,5.61,5.61s-2.51,5.61-5.61,5.61s-5.61-2.51-5.61-5.61l0,0
				C38.37,18.62,40.88,16.11,43.98,16.1z M30,6.61c3.1,0,5.61,2.52,5.61,5.62s-2.52,5.61-5.62,5.61s-5.61-2.51-5.61-5.61
				C24.39,9.13,26.9,6.61,30,6.61z M26.36,18.72L26.36,18.72c0.04,0,0.08,0,0.12-0.01c2.18,1.19,4.82,1.19,7.01,0.01h3.75
				c-0.22,0.5-0.39,1.02-0.5,1.55h-13.5c-0.11-0.53-0.27-1.05-0.5-1.55H26.36L26.36,18.72z M16.02,16.1c3.1,0,5.61,2.51,5.62,5.61
				s-2.51,5.61-5.61,5.62c-3.1,0-5.61-2.51-5.62-5.61l0,0C10.41,18.62,12.92,16.11,16.02,16.1z M36.8,49.8l-0.54,0.97H23.74
				L23.2,49.8H36.8z M58.26,51.94c0,0.81-0.66,1.46-1.46,1.46H3.2c-0.81,0-1.46-0.65-1.46-1.46V49.8h19.45l1.26,2.28
				c0.15,0.28,0.45,0.45,0.77,0.45h13.55c0.32,0,0.62-0.17,0.77-0.45l1.26-2.28h19.45L58.26,51.94L58.26,51.94z"/>
		</g>
	</g>
	<g id="Groupe_63" transform="translate(113.832 101.123)">
		<g id="Groupe_62">
			<path id="Tracé_126" class="st0" d="M-61.34-50.41L-61.34-50.41c-0.49,0-0.88,0.39-0.88,0.88l0,0c0,0.49,0.39,0.88,0.88,0.89
				c0.49,0,0.88-0.39,0.89-0.88C-60.46-50.01-60.85-50.4-61.34-50.41L-61.34-50.41z"/>
		</g>
	</g>
	<g id="Groupe_65" transform="translate(107.797 101.123)">
		<g id="Groupe_64">
			<path id="Tracé_127" class="st0" d="M-58.04-50.41L-58.04-50.41c-0.49,0-0.88,0.39-0.88,0.88l0,0c0,0.49,0.39,0.88,0.88,0.89
				c0.49,0,0.88-0.39,0.89-0.88C-57.16-50.01-57.56-50.4-58.04-50.41L-58.04-50.41z"/>
		</g>
	</g>
	<g id="Groupe_67" transform="translate(54.695 54.167)">
		<g id="Groupe_66">
			<path id="Tracé_128" class="st0" d="M-27.6-24.75c-1.28,0-2.31,1.03-2.31,2.31s1.03,2.31,2.31,2.31s2.31-1.03,2.31-2.31l0,0
				C-25.29-23.71-26.33-24.75-27.6-24.75z M-27.6-21.89c-0.3,0-0.55-0.25-0.55-0.55s0.25-0.55,0.55-0.55s0.55,0.25,0.55,0.55l0,0
				C-27.05-22.13-27.3-21.89-27.6-21.89z"/>
		</g>
	</g>
	<g id="Groupe_69" transform="translate(67.507 66.982)">
		<g id="Groupe_68">
			<path id="Tracé_129" class="st0" d="M-34.6-31.75c-1.28,0-2.31,1.03-2.31,2.31s1.03,2.31,2.31,2.31c1.28,0,2.31-1.03,2.31-2.31
				l0,0C-32.29-30.72-33.33-31.75-34.6-31.75z M-34.6-28.89c-0.3,0-0.55-0.25-0.55-0.55s0.25-0.55,0.55-0.55s0.55,0.25,0.55,0.55
				l0,0C-34.05-29.14-34.3-28.89-34.6-28.89L-34.6-28.89z"/>
		</g>
	</g>
	<g id="Groupe_71" transform="translate(57.806 57.323)">
		<g id="Groupe_70">
			<path id="Tracé_130" class="st0" d="M-24.26-26.21c-0.34-0.34-0.9-0.35-1.24,0l-5.85,5.81c-0.35,0.34-0.36,0.9-0.02,1.24
				c0.34,0.35,0.9,0.36,1.24,0.02l0.01-0.01l5.85-5.81C-23.92-25.31-23.91-25.87-24.26-26.21L-24.26-26.21z"/>
		</g>
	</g>
	<g id="Groupe_73" transform="translate(97.958 74.455)">
		<g id="Groupe_72">
			<path id="Tracé_131" class="st0" d="M-48.67-35.83h-4c-0.49,0-0.88,0.39-0.88,0.88s0.39,0.88,0.88,0.88h4
				c0.49,0,0.88-0.39,0.88-0.88C-47.79-35.44-48.19-35.83-48.67-35.83z"/>
		</g>
	</g>
	<g id="Groupe_75" transform="translate(97.958 79.627)">
		<g id="Groupe_74">
			<path id="Tracé_132" class="st0" d="M-48.67-38.66h-4c-0.49,0-0.88,0.39-0.88,0.88s0.39,0.88,0.88,0.88h4
				c0.49,0,0.88-0.39,0.88-0.88C-47.79-38.27-48.19-38.66-48.67-38.66z"/>
		</g>
	</g>
	<g id="Groupe_77" transform="translate(103.302 84.799)">
		<g id="Groupe_76">
			<path id="Tracé_133" class="st0" d="M-54.02-41.49h-1.58c-0.49,0-0.88,0.39-0.88,0.88s0.39,0.88,0.88,0.88h1.58
				c0.49,0,0.88-0.39,0.88-0.88C-53.14-41.09-53.53-41.49-54.02-41.49L-54.02-41.49z"/>
		</g>
	</g>
	<g id="Groupe_79" transform="translate(61.431 11.383)">
		<g id="Groupe_78">
			<path id="Tracé_134" class="st0" d="M-30.19,0.79l0.66-0.66c0.34-0.34,0.34-0.9,0-1.24s-0.9-0.34-1.24,0l0,0l-0.66,0.66
				l-0.66-0.66c-0.34-0.34-0.9-0.34-1.24,0s-0.34,0.9,0,1.24l0.66,0.66l-0.66,0.66c-0.34,0.34-0.34,0.9,0,1.24s0.9,0.34,1.24,0
				l0.66-0.66l0.66,0.66c0.34,0.34,0.9,0.34,1.24,0s0.34-0.9,0-1.24l0,0L-30.19,0.79z"/>
		</g>
	</g>
	<g id="Groupe_81" transform="translate(29.437 31.141)">
		<g id="Groupe_80">
			<path id="Tracé_135" class="st0" d="M-11.6-10.35h-0.93v-0.93c0-0.49-0.39-0.88-0.88-0.88s-0.88,0.39-0.88,0.88v0.93h-0.93
				c-0.49,0-0.88,0.39-0.88,0.88s0.39,0.88,0.88,0.88h0.93v0.93c0,0.49,0.39,0.88,0.88,0.88s0.88-0.39,0.88-0.88v-0.93h0.93
				c0.49,0,0.88-0.39,0.88-0.88S-11.12-10.35-11.6-10.35L-11.6-10.35z"/>
		</g>
	</g>
	<g id="Groupe_83" transform="translate(91.082 35.138)">
		<g id="Groupe_82">
			<path id="Tracé_136" class="st0" d="M-45.29-14.35h-3.63c-0.49,0-0.88,0.39-0.88,0.88s0.39,0.88,0.88,0.88h3.63
				c0.49,0,0.88-0.39,0.88-0.88S-44.8-14.35-45.29-14.35L-45.29-14.35z"/>
		</g>
	</g>
</g>
</svg>
