<?xml version="1.0" encoding="utf-8"?>
<!-- Generator: Adobe Illustrator 24.0.1, SVG Export Plug-In . SVG Version: 6.00 Build 0)  -->
<svg version="1.1" id="Calque_1" xmlns="http://www.w3.org/2000/svg" xmlns:xlink="http://www.w3.org/1999/xlink" x="0px" y="0px"
	 viewBox="0 0 60 60" style="enable-background:new 0 0 60 60;" xml:space="preserve">
<style type="text/css">
	.st0{fill:#F4DFCC;}
</style>
<g>
	<path class="st0" d="M25.04,3.96c-11.63,0-21.09,9.46-21.09,21.09c0,11.63,9.46,21.09,21.09,21.09s21.09-9.46,21.09-21.09
		C46.13,13.42,36.67,3.96,25.04,3.96z M35.91,21.74c-0.9,0-1.64-0.73-1.64-1.64s0.74-1.64,1.64-1.64h0c0.9,0,1.64,0.74,1.64,1.64
		C37.55,21.01,36.82,21.74,35.91,21.74z M25.69,31.96c0,0.9-0.73,1.64-1.64,1.64s-1.64-0.74-1.64-1.64s0.73-1.64,1.64-1.64
		S25.69,31.05,25.69,31.96z M14.18,20.44L14.18,20.44c0.9,0,1.64,0.74,1.64,1.64c0,0.9-0.73,1.64-1.64,1.64
		c-0.9,0-1.64-0.74-1.64-1.64C12.54,21.17,13.27,20.44,14.18,20.44z M37.85,16.29c-0.6-0.31-1.26-0.48-1.93-0.48
		c-2.36,0-4.29,1.92-4.29,4.29c0,0.67,0.17,1.34,0.48,1.93L26,28.14c-0.61-0.32-1.27-0.48-1.94-0.48c-0.66,0-1.33,0.16-1.94,0.48
		l-4.13-4.13c0.31-0.6,0.48-1.26,0.48-1.94c0-1.14-0.45-2.22-1.26-3.03c-0.81-0.81-1.88-1.25-3.02-1.25c0,0,0,0,0,0
		c-1.86,0-3.49,1.2-4.07,2.95H7.12C9.1,12.54,16.57,6.62,25.04,6.61c5.89,0,11.44,2.84,14.89,7.6L37.85,16.29z M14.18,26.37
		c0.67,0,1.34-0.17,1.93-0.48l4.13,4.13c-0.31,0.6-0.48,1.26-0.48,1.94c0,2.37,1.92,4.29,4.29,4.29c2.37,0,4.29-1.92,4.29-4.29
		c0-0.67-0.17-1.34-0.48-1.93l6.11-6.11c0.6,0.31,1.26,0.48,1.94,0.48c2.37,0,4.29-1.92,4.29-4.29c0-0.67-0.17-1.34-0.48-1.94
		l1.65-1.65c4.62,8.8,1.39,19.76-7.33,24.63l-0.05,0.03c-8.87,4.93-20.11,1.73-25.05-7.14C7.13,30.77,6.35,27.1,6.69,23.4h3.43
		C10.68,25.15,12.32,26.36,14.18,26.37z"/>
	<path class="st0" d="M58.43,50.63L46.21,38.4c5.16-8.15,5.16-18.57,0-26.72l1.6-1.6c0.6,0.31,1.26,0.47,1.93,0.48h0
		c1.86-0.01,3.49-1.21,4.06-2.96h6.15V4.94h-6.15c-0.69-2.13-2.94-3.39-5.14-2.83c-1.9,0.49-3.22,2.2-3.21,4.15
		c0,0.67,0.17,1.34,0.48,1.93l-1.29,1.29c-4.06-5.13-9.86-8.42-16.36-9.27c-6.63-0.87-13.2,0.89-18.51,4.96
		C-1.17,13.59-3.24,29.34,5.17,40.29C13,50.5,27.55,53.07,38.4,46.21l12.14,12.14c1.03,1.05,2.41,1.64,3.88,1.66
		c0.02,0,0.04,0,0.06,0c1.45,0,2.82-0.56,3.86-1.57c1.05-1.03,1.64-2.41,1.66-3.88C60.02,53.07,59.46,51.68,58.43,50.63z
		 M49.78,4.63c0.89,0.02,1.6,0.75,1.6,1.64c0,0.9-0.73,1.64-1.64,1.64c-0.9,0-1.64-0.74-1.64-1.64c0-0.9,0.73-1.64,1.64-1.64
		L49.78,4.63z M42.3,39.29c-0.08,0.1-0.16,0.19-0.25,0.28L42,39.64c-0.3,0.35-0.61,0.68-0.92,1.01c-0.14,0.14-0.28,0.28-0.42,0.42
		c-0.32,0.31-0.66,0.62-1.01,0.92l-0.17,0.15c-0.06,0.05-0.12,0.1-0.18,0.15c-0.38,0.31-0.79,0.62-1.25,0.96
		c-10.06,7.19-24.09,4.85-31.28-5.21c-3.48-4.87-4.86-10.81-3.87-16.72c0.98-5.91,4.21-11.08,9.08-14.56
		c3.85-2.75,8.35-4.18,12.99-4.18c1.24,0,2.49,0.1,3.73,0.31c5.91,0.98,11.08,4.21,14.56,9.08c5.57,7.8,5.57,18.27,0,26.07
		C42.92,38.51,42.6,38.92,42.3,39.29z M40.71,44.55c0.14-0.11,0.3-0.24,0.45-0.37c0.22-0.18,0.44-0.37,0.65-0.56l0.32-0.3
		c0.41-0.38,0.81-0.79,1.19-1.19l0.3-0.32c0.19-0.21,0.38-0.43,0.56-0.65c0.13-0.15,0.25-0.3,0.37-0.45l0.09-0.11l2.23,2.23
		l-4.05,4.05l-2.23-2.23L40.71,44.55z M56.52,56.47c-0.54,0.55-1.25,0.85-2.02,0.86c-0.77,0.01-1.49-0.28-2.03-0.81l-7.76-7.77
		l4.05-4.05l7.72,7.72C57.6,53.52,57.62,55.34,56.52,56.47z"/>
</g>
</svg>
