<?xml version="1.0" encoding="utf-8"?>
<!-- Generator: Adobe Illustrator 24.0.1, SVG Export Plug-In . SVG Version: 6.00 Build 0)  -->
<svg version="1.1" id="Calque_1" xmlns="http://www.w3.org/2000/svg" xmlns:xlink="http://www.w3.org/1999/xlink" x="0px" y="0px"
	 viewBox="0 0 60 60" style="enable-background:new 0 0 60 60;" xml:space="preserve">
<style type="text/css">
	.st0{fill:#FAEEE5;}
</style>
<g>
	<g id="Groupe_32" transform="translate(18.721)">
		<g id="Groupe_31">
			<path id="Tracé_112" class="st0" d="M22.17,30.33l-5.66-2.52c-0.36-0.16-0.59-0.52-0.59-0.91v-2.12
				c1.53-1.01,2.68-2.5,3.29-4.22c3.61-4.37,2.99-10.83-1.37-14.44c-0.33-0.28-0.69-0.53-1.05-0.76c0.05-0.24,0.08-0.48,0.08-0.72
				c0-2.55-2.5-4.63-5.58-4.63S5.7,2.08,5.7,4.64c0,0.24,0.03,0.48,0.08,0.72C0.99,8.39-0.43,14.72,2.6,19.51
				c0.23,0.37,0.49,0.72,0.76,1.05c0.61,1.73,1.76,3.21,3.29,4.22v2.12c0,0.4-0.23,0.75-0.59,0.91L0.4,30.33
				c-1.33,0.59-2.2,1.92-2.2,3.38v4.74c0,0.49,0.39,0.88,0.88,0.88c0.48,0,0.88-0.39,0.88-0.88v-4.74c0-0.77,0.45-1.46,1.15-1.77
				l5.66-2.52c0.2-0.09,0.39-0.21,0.57-0.34l2.86,2.14c0.65,0.48,1.53,0.48,2.18,0l2.86-2.14c0.18,0.14,0.37,0.25,0.57,0.34
				l5.66,2.52c0.7,0.31,1.15,1.01,1.15,1.77v4.74c0,0.49,0.39,0.88,0.88,0.88s0.88-0.39,0.88-0.88v-4.74
				C24.37,32.25,23.51,30.93,22.17,30.33z M11.28,1.76c2.04,0,3.71,1.21,3.81,2.73c-2.45-0.98-5.18-0.98-7.63,0
				C7.57,2.97,9.24,1.76,11.28,1.76z M11.32,29.81c-0.02,0.02-0.05,0.02-0.07,0l-2.94-2.2c0.06-0.23,0.09-0.47,0.09-0.71v-1.23
				c1.86,0.68,3.9,0.68,5.76,0v1.23c0,0.24,0.03,0.48,0.09,0.71L11.32,29.81z M11.28,24.42c-3.66,0-6.63-2.97-6.64-6.64
				c0-0.27,0.13-0.52,0.35-0.67c1-0.69,1.82-1.62,2.38-2.7c0.21-0.44,0.03-0.96-0.4-1.17c-0.43-0.21-0.95-0.04-1.17,0.39
				c-0.44,0.82-1.06,1.52-1.83,2.05c-0.34,0.24-0.61,0.56-0.8,0.93c-1.43-4.48,1.04-9.27,5.52-10.7s9.27,1.04,10.7,5.52
				c0.48,1.5,0.53,3.1,0.16,4.63c-0.19-0.71-0.58-1.35-1.13-1.83c-3.43-3.05-9.58-3.85-9.84-3.88c-0.48-0.05-0.91,0.3-0.96,0.79
				c-0.05,0.47,0.28,0.89,0.75,0.96c0.06,0.01,5.87,0.77,8.9,3.45c0.42,0.37,0.67,0.91,0.67,1.47v0.79
				C17.91,21.45,14.94,24.42,11.28,24.42z"/>
		</g>
	</g>
	<g id="Groupe_34" transform="translate(49.15 81.915)">
		<g id="Groupe_33">
			<path id="Tracé_113" class="st0" d="M-19.15-49.04c-0.49,0-0.88,0.39-0.88,0.88v4.7c0,0.49,0.39,0.88,0.88,0.88
				s0.88-0.39,0.88-0.88v-4.7C-18.27-48.64-18.66-49.04-19.15-49.04z"/>
		</g>
	</g>
	<g id="Groupe_36" transform="translate(30.426 86.598)">
		<g id="Groupe_35">
			<path id="Tracé_114" class="st0" d="M-7.94-51.84c-0.49,0-0.88,0.39-0.88,0.88v2.82c0,0.49,0.39,0.88,0.88,0.88
				c0.48,0,0.88-0.39,0.88-0.88v-2.82C-7.06-51.45-7.46-51.84-7.94-51.84L-7.94-51.84z"/>
		</g>
	</g>
	<g id="Groupe_38" transform="translate(67.874 86.598)">
		<g id="Groupe_37">
			<path id="Tracé_115" class="st0" d="M-30.36-51.84c-0.49,0-0.88,0.39-0.88,0.88v2.82c0,0.49,0.39,0.88,0.88,0.88
				s0.88-0.39,0.88-0.88v-2.82C-29.48-51.45-29.87-51.84-30.36-51.84L-30.36-51.84z"/>
		</g>
	</g>
	<g id="Groupe_40" transform="translate(44.47 135.749)">
		<g id="Groupe_39">
			<path id="Tracé_116" class="st0" d="M-14.47-81.26c-1.52,0-2.76,1.23-2.76,2.76c0,1.52,1.23,2.76,2.76,2.76
				c1.52,0,2.76-1.23,2.76-2.76l0,0C-11.71-80.03-12.95-81.26-14.47-81.26z M-14.47-77.51c-0.55,0-1-0.45-1-1s0.45-1,1-1s1,0.45,1,1
				C-13.47-77.95-13.92-77.51-14.47-77.51L-14.47-77.51z"/>
		</g>
	</g>
	<g id="Groupe_42" transform="translate(0 135.749)">
		<g id="Groupe_41">
			<path id="Tracé_117" class="st0" d="M12.15-81.26c-1.52,0-2.76,1.23-2.76,2.76s1.23,2.76,2.76,2.76s2.76-1.23,2.76-2.76l0,0
				C14.91-80.03,13.67-81.26,12.15-81.26z M12.15-77.51c-0.55,0-1-0.45-1-1s0.45-1,1-1s1,0.45,1,1
				C13.15-77.95,12.7-77.51,12.15-77.51L12.15-77.51z"/>
		</g>
	</g>
	<g id="Groupe_44" transform="translate(88.94 135.749)">
		<g id="Groupe_43">
			<path id="Tracé_118" class="st0" d="M-41.09-81.26c-1.52,0-2.76,1.23-2.76,2.76s1.23,2.76,2.76,2.76c1.52,0,2.76-1.23,2.76-2.76
				l0,0C-38.34-80.03-39.57-81.26-41.09-81.26z M-41.09-77.51c-0.55,0-1-0.45-1-1s0.45-1,1-1s1,0.45,1,1
				C-40.09-77.95-40.54-77.51-41.09-77.51L-41.09-77.51z"/>
		</g>
	</g>
	<g id="Groupe_46" transform="translate(13.039 102.981)">
		<g id="Groupe_45">
			<path id="Tracé_119" class="st0" d="M32.17-50.95l-5.2-7.27c-0.69-0.97-1.81-1.55-3.01-1.55h-6.13v-1
				c0-0.49-0.39-0.88-0.88-0.88c-0.48,0-0.88,0.39-0.88,0.88v1H9.96c-1.19,0-2.31,0.58-3.01,1.55l-5.2,7.27
				c-0.28,0.39-0.19,0.94,0.2,1.23c0.39,0.28,0.94,0.19,1.23-0.2l0,0l5.2-7.27C8.74-57.7,9.33-58,9.96-58h6.13v6.63
				c0,0.49,0.39,0.88,0.88,0.88c0.48,0,0.88-0.39,0.88-0.88V-58h6.13c0.63,0,1.21,0.3,1.58,0.81l5.2,7.27
				c0.28,0.39,0.83,0.49,1.23,0.2C32.36-50,32.45-50.55,32.17-50.95L32.17-50.95z"/>
		</g>
	</g>
</g>
</svg>
