<?xml version="1.0" encoding="utf-8"?>
<!-- Generator: Adobe Illustrator 24.0.1, SVG Export Plug-In . SVG Version: 6.00 Build 0)  -->
<svg version="1.1" id="Calque_1" xmlns="http://www.w3.org/2000/svg" xmlns:xlink="http://www.w3.org/1999/xlink" x="0px" y="0px"
	 viewBox="0 0 60 60" style="enable-background:new 0 0 60 60;" xml:space="preserve">
<style type="text/css">
	.st0{fill:#E99283;}
	.st1{fill:#FAEEE5;}
</style>
<g id="Groupe_222" transform="translate(-337 -646)">
	<circle id="Ellipse_15" class="st0" cx="367" cy="676" r="30"/>
	<g id="Groupe_221" transform="translate(-454.167 -41.719)">
		<g id="Groupe_172" transform="translate(816.167 708.719)">
			<g id="Groupe_154" transform="translate(0 0)">
				<g id="Groupe_153">
					<path id="Tracé_179" class="st1" d="M20.82,8.13H15.5V-8.83c0-0.4-0.32-0.72-0.72-0.72c-0.19,0-0.37,0.08-0.51,0.21L12.24-7.3
						l-2.04-2.04c-0.28-0.28-0.74-0.28-1.02,0c0,0,0,0,0,0L7.16-7.3L5.12-9.33c-0.28-0.28-0.74-0.28-1.02,0c0,0,0,0,0,0L2.07-7.3
						L0.03-9.33c-0.28-0.28-0.74-0.28-1.02,0c0,0,0,0,0,0L-3.02-7.3l-2.04-2.04c-0.28-0.28-0.74-0.28-1.02,0c0,0,0,0,0,0L-8.1-7.3
						l-2.04-2.04c-0.28-0.28-0.74-0.28-1.02,0c-0.14,0.14-0.21,0.33-0.21,0.53V23.5c0,2.06,1.67,3.73,3.74,3.74H17.8
						c2.06,0,3.73-1.67,3.74-3.74V8.85C21.54,8.45,21.22,8.13,20.82,8.13C20.82,8.13,20.82,8.13,20.82,8.13z M-7.63,25.8
						c-1.27,0-2.3-1.03-2.3-2.3V-7.09l1.32,1.32c0.28,0.28,0.74,0.28,1.02,0c0,0,0,0,0,0l2.04-2.04l2.04,2.04
						c0.28,0.28,0.74,0.28,1.02,0c0,0,0,0,0,0l2.04-2.04l2.03,2.04c0.28,0.28,0.74,0.28,1.02,0c0,0,0,0,0,0l2.04-2.04l2.04,2.04
						c0.28,0.28,0.74,0.28,1.02,0c0,0,0,0,0,0L9.7-7.81l2.04,2.04c0.28,0.28,0.74,0.28,1.02,0c0,0,0,0,0,0l1.32-1.32V8.85
						c0,0.01,0,0.01,0,0.02V23.5c0,0.83,0.28,1.64,0.8,2.3H-7.63z M20.1,23.5c-0.02,1.27-1.06,2.28-2.33,2.26
						c-1.24-0.02-2.24-1.02-2.26-2.26V9.57h4.6V23.5L20.1,23.5z"/>
				</g>
			</g>
			<g id="Groupe_156" transform="translate(33.978 20.924)">
				<g id="Groupe_155">
					<path id="Tracé_180" class="st1" d="M-24.69-19.06h-1.4c-0.4,0-0.72,0.32-0.72,0.72s0.32,0.72,0.72,0.72h1.4
						c0.4,0,0.72-0.32,0.72-0.72S-24.29-19.06-24.69-19.06z"/>
				</g>
			</g>
			<g id="Groupe_158" transform="translate(10.079 20.924)">
				<g id="Groupe_157">
					<path id="Tracé_181" class="st1" d="M-13.83-19.06h-1.4c-0.4,0-0.72,0.32-0.72,0.72s0.32,0.72,0.72,0.72h1.4
						c0.4,0,0.72-0.32,0.72-0.72S-13.43-19.06-13.83-19.06L-13.83-19.06z"/>
				</g>
			</g>
			<g id="Groupe_160" transform="translate(16.345 35.564)">
				<g id="Groupe_159">
					<path id="Tracé_182" class="st1" d="M-6.69-25.71h-11.38c-0.4,0-0.72,0.32-0.72,0.72c0,0.4,0.32,0.72,0.72,0.72h11.38
						c0.4,0,0.72-0.32,0.72-0.72C-5.97-25.39-6.3-25.71-6.69-25.71L-6.69-25.71z"/>
				</g>
			</g>
			<g id="Groupe_162" transform="translate(9.413 35.564)">
				<g id="Groupe_161">
					<path id="Tracé_183" class="st1" d="M-14.42-25.5c-0.28-0.28-0.73-0.28-1.02,0c-0.28,0.28-0.28,0.74,0,1.02
						c0.28,0.28,0.73,0.28,1.02,0c0.13-0.13,0.21-0.32,0.21-0.51C-14.21-25.18-14.28-25.37-14.42-25.5z"/>
				</g>
			</g>
			<g id="Groupe_164" transform="translate(16.345 44.257)">
				<g id="Groupe_163">
					<path id="Tracé_184" class="st1" d="M-6.69-29.66h-11.38c-0.4,0-0.72,0.32-0.72,0.72c0,0.4,0.32,0.72,0.72,0.72h11.38
						c0.4,0,0.72-0.32,0.72-0.72C-5.97-29.34-6.3-29.66-6.69-29.66L-6.69-29.66z"/>
				</g>
			</g>
			<g id="Groupe_166" transform="translate(9.413 44.257)">
				<g id="Groupe_165">
					<path id="Tracé_185" class="st1" d="M-14.42-29.45c-0.28-0.28-0.73-0.28-1.02,0c-0.28,0.28-0.28,0.74,0,1.02
						c0.28,0.28,0.73,0.28,1.02,0c0.13-0.13,0.21-0.32,0.21-0.51C-14.21-29.13-14.28-29.32-14.42-29.45z"/>
				</g>
			</g>
			<g id="Groupe_168" transform="translate(16.345 52.949)">
				<g id="Groupe_167">
					<path id="Tracé_186" class="st1" d="M-6.69-33.61h-11.38c-0.4,0-0.72,0.32-0.72,0.72c0,0.4,0.32,0.72,0.72,0.72h11.38
						c0.4,0,0.72-0.32,0.72-0.72C-5.97-33.29-6.3-33.61-6.69-33.61L-6.69-33.61z"/>
				</g>
			</g>
			<g id="Groupe_170" transform="translate(9.413 52.949)">
				<g id="Groupe_169">
					<path id="Tracé_187" class="st1" d="M-14.42-33.4c-0.28-0.28-0.73-0.28-1.02,0c-0.28,0.28-0.28,0.74,0,1.02
						c0.28,0.28,0.73,0.28,1.02,0c0.13-0.13,0.21-0.32,0.21-0.51C-14.21-33.09-14.28-33.27-14.42-33.4z"/>
				</g>
			</g>
			<g id="Groupe_171" transform="translate(18.458 13.326)">
				<path id="Tracé_188" class="st1" d="M-18.08-12.29h2.48c0.31,0,0.56,0.25,0.56,0.56c0,0.06-0.01,0.11-0.03,0.17l0,0
					c-0.07,0.24-0.29,0.4-0.54,0.4h-2.48v0.76h1.91c0.31,0,0.56,0.25,0.56,0.56c0,0.06-0.01,0.11-0.03,0.17l0,0
					c-0.07,0.24-0.29,0.4-0.54,0.4h-1.91v0.08C-18.1-8.75-17.96-8.33-17.68-8c0.28,0.29,0.68,0.45,1.09,0.42
					c0.35,0.02,0.69-0.09,0.97-0.31c0.14-0.12,0.26-0.26,0.35-0.42c0.13-0.24,0.38-0.39,0.65-0.38h0.18c0.4,0,0.73,0.33,0.73,0.73
					c0,0.12-0.03,0.23-0.08,0.34l0,0.01c-0.17,0.32-0.39,0.61-0.66,0.85c-0.28,0.24-0.6,0.43-0.95,0.56
					c-0.38,0.13-0.78,0.2-1.18,0.2c-0.44,0.01-0.87-0.07-1.28-0.23c-0.37-0.14-0.71-0.36-0.99-0.63c-0.28-0.28-0.5-0.62-0.65-0.99
					c-0.16-0.41-0.24-0.85-0.23-1.29v-3.3c-0.01-0.44,0.07-0.87,0.23-1.28c0.15-0.37,0.37-0.71,0.65-0.99
					c0.28-0.28,0.62-0.5,0.99-0.64c0.41-0.15,0.85-0.23,1.28-0.23c0.4,0,0.8,0.06,1.18,0.2c0.35,0.12,0.67,0.31,0.95,0.56
					c0.27,0.24,0.5,0.53,0.66,0.85l0,0.01c0.19,0.36,0.05,0.8-0.31,0.99c-0.1,0.05-0.22,0.08-0.34,0.08h-0.18
					c-0.27,0-0.52-0.14-0.65-0.38c-0.09-0.16-0.2-0.31-0.35-0.42c-0.27-0.22-0.62-0.33-0.97-0.31c-0.41-0.02-0.8,0.13-1.09,0.42
					c-0.28,0.33-0.42,0.75-0.39,1.18L-18.08-12.29z"/>
			</g>
		</g>
	</g>
</g>
</svg>
