<?xml version="1.0" encoding="utf-8"?>
<!-- Generator: Adobe Illustrator 24.0.1, SVG Export Plug-In . SVG Version: 6.00 Build 0)  -->
<svg version="1.1" id="Calque_1" xmlns="http://www.w3.org/2000/svg" xmlns:xlink="http://www.w3.org/1999/xlink" x="0px" y="0px"
	 viewBox="0 0 60 60" style="enable-background:new 0 0 60 60;" xml:space="preserve">
<style type="text/css">
	.st0{fill:#30425A;}
	.st1{fill:#FAEEE5;}
</style>
<g id="Groupe_184" transform="translate(-992 -762)">
	<circle id="Ellipse_14" class="st0" cx="1022" cy="792" r="29.84"/>
	<g id="Groupe_181" transform="translate(-1.843 -144.353)">
		<g id="Groupe_180" transform="translate(1016.843 936.354)">
			<g id="Groupe_175" transform="translate(70.879 6.591)">
				<g id="Groupe_174" transform="translate(0 0)">
					<path id="Tracé_189" class="st1" d="M-47.98-18.88c-0.29-0.29-0.76-0.29-1.06,0c-0.29,0.29-0.29,0.76,0,1.06
						c0.29,0.29,0.76,0.29,1.06,0c0.14-0.14,0.22-0.33,0.22-0.53C-47.76-18.55-47.84-18.74-47.98-18.88z"/>
				</g>
			</g>
			<g id="Groupe_177" transform="translate(34.756 43.631)">
				<g id="Groupe_176">
					<path id="Tracé_190" class="st1" d="M-28.97-38.38c-0.29-0.29-0.76-0.29-1.06,0c-0.29,0.29-0.29,0.76,0,1.06
						c0.29,0.29,0.76,0.29,1.06,0c0.14-0.14,0.22-0.33,0.22-0.53C-28.75-38.05-28.83-38.24-28.97-38.38z"/>
				</g>
			</g>
			<g id="Groupe_179" transform="translate(0 0)">
				<g id="Groupe_178" transform="translate(0 0)">
					<path id="Tracé_191" class="st1" d="M24.7-9.82c-0.2-0.36-0.65-0.5-1.01-0.3c-0.36,0.2-0.5,0.65-0.3,1.01
						c0.01,0.01,0.01,0.02,0.02,0.03c2.21,3.91,1.55,8.81-1.62,11.99l-0.57,0.56c-0.14-0.37-0.36-0.7-0.64-0.98l-7.65-7.65
						c0.51-0.25,0.97-0.58,1.37-0.98l1.47-1.47c0.28-0.3,0.27-0.77-0.02-1.05c-0.29-0.28-0.74-0.28-1.03,0l-1.47,1.47
						c-0.68,0.69-1.61,1.07-2.58,1.07H7.72c-0.2,0-0.39,0.08-0.53,0.22L4.95-3.66C4.27-3,3.19-3.02,2.53-3.69
						c-0.64-0.66-0.64-1.72,0-2.38l5.13-5.13c3.15-3.14,8-3.82,11.9-1.68c0.36,0.2,0.81,0.08,1.02-0.28
						c0.2-0.36,0.08-0.81-0.28-1.02c0,0-0.01,0-0.01-0.01c-2.16-1.19-4.64-1.66-7.08-1.33c-2.26,0.29-4.37,1.26-6.07,2.77
						c-4.75-4.19-12-3.73-16.2,1.02c-4,4.54-3.79,11.41,0.48,15.69l0.28,0.28c0.05,0.05,0.1,0.09,0.16,0.12
						c0.11,1.46,1.33,2.59,2.79,2.59c0.04,0,0.07,0,0.11,0c0,0.04,0,0.08,0,0.11c0,1.55,1.25,2.81,2.8,2.81c0,0,0,0,0,0
						c0.04,0,0.07,0,0.11,0c0,0.04,0,0.08,0,0.11c0,1.55,1.25,2.81,2.8,2.81c0,0,0,0,0,0c0.04,0,0.08,0,0.11,0
						c-0.06,1.55,1.14,2.85,2.69,2.92c0.78,0.03,1.54-0.27,2.1-0.82l1.04-1.04l1.41,1.41c1.1,1.1,2.87,1.1,3.97,0
						c0.56-0.56,0.86-1.33,0.82-2.13c0.05,0,0.09,0,0.14,0c1.55,0,2.8-1.25,2.8-2.8c0-0.04,0-0.08,0-0.11c0.04,0,0.08,0,0.11,0
						c1.55,0,2.8-1.25,2.81-2.8c0-0.04,0-0.08,0-0.12c0.04,0,0.08,0,0.11,0c1.14,0,2.16-0.68,2.59-1.73
						c0.07-0.04,0.14-0.08,0.2-0.14l1.44-1.44C26.48,0.31,27.24-5.32,24.7-9.82z M-5.35,5.46c-0.73,0-1.32-0.59-1.32-1.32
						c0-0.35,0.14-0.69,0.39-0.93L-5,1.93c0.51-0.51,1.35-0.51,1.86,0s0.51,1.35,0,1.86l-1.28,1.28C-4.66,5.32-5,5.46-5.35,5.46z
						 M-3.36,7.99c-0.51-0.51-0.51-1.35,0-1.86c0,0,0,0,0,0l1.28-1.28l0,0c0.51-0.51,1.35-0.51,1.86,0c0.51,0.51,0.51,1.35,0,1.86
						l0,0L-1.5,7.99C-2.01,8.5-2.85,8.5-3.36,7.99z M-0.45,10.91c-0.51-0.51-0.51-1.35,0-1.86c0,0,0,0,0,0l1.28-1.28l0,0
						c0.51-0.51,1.35-0.51,1.86,0c0.51,0.51,0.51,1.35,0,1.86l0,0l-1.28,1.28C0.9,11.42,0.07,11.42-0.45,10.91L-0.45,10.91z
						 M5.62,12.54l-1.28,1.28c-0.51,0.51-1.35,0.51-1.86,0c-0.51-0.51-0.51-1.35,0-1.86l1.28-1.28l0,0c0.51-0.51,1.35-0.51,1.86,0
						S6.13,12.02,5.62,12.54L5.62,12.54L5.62,12.54z M19.53,5.41c-0.51,0.51-1.35,0.51-1.86,0c0,0,0,0,0,0l-3.1-3.1l0,0l-2.92-2.92
						c-0.28-0.3-0.76-0.31-1.05-0.02s-0.31,0.76-0.02,1.05c0.01,0.01,0.02,0.02,0.02,0.02l6.02,6.02c0.51,0.51,0.51,1.35,0,1.86
						c-0.51,0.51-1.35,0.51-1.86,0l0,0L8.73,2.31c-0.3-0.28-0.77-0.27-1.05,0.02c-0.28,0.29-0.28,0.74,0,1.03l2.92,2.92l0,0l3.1,3.1
						c0.51,0.51,0.51,1.35,0,1.86c-0.51,0.51-1.35,0.51-1.86,0l0,0l-3.1-3.1c-0.06-0.06-0.12-0.1-0.19-0.14L7.66,7.12
						C7.36,6.84,6.89,6.85,6.6,7.15c-0.28,0.29-0.28,0.74,0,1.03l4.15,4.15c0.51,0.51,0.51,1.35,0,1.86c-0.51,0.51-1.35,0.51-1.86,0
						l0,0l-1.58-1.58c0.55-1.45-0.17-3.07-1.62-3.62c-0.32-0.12-0.66-0.18-1-0.18c-0.04,0-0.08,0-0.11,0
						c0.06-1.55-1.14-2.85-2.69-2.92c-0.04,0-0.08,0-0.12,0c-0.04,0-0.08,0-0.11,0c0.06-1.55-1.14-2.85-2.69-2.92
						c-0.04,0-0.08,0-0.12,0c-0.04,0-0.08,0-0.11,0C-1.2,1.42-2.4,0.11-3.95,0.05c-0.78-0.03-1.55,0.27-2.1,0.82l-1.28,1.28
						c-0.16,0.16-0.3,0.34-0.41,0.53c-3.77-4.02-3.57-10.34,0.45-14.11c3.72-3.49,9.48-3.61,13.35-0.28L1.48-7.13
						C0.24-5.88,0.25-3.85,1.51-2.61c1.25,1.23,3.25,1.23,4.49,0l2.03-2.03h2.63c0.22,0,0.43-0.01,0.64-0.04l8.22,8.22
						C20.04,4.06,20.04,4.9,19.53,5.41z"/>
				</g>
			</g>
		</g>
	</g>
</g>
</svg>
