<?xml version="1.0" encoding="utf-8"?>
<!-- Generator: Adobe Illustrator 24.0.1, SVG Export Plug-In . SVG Version: 6.00 Build 0)  -->
<svg version="1.1" id="Calque_1" xmlns="http://www.w3.org/2000/svg" xmlns:xlink="http://www.w3.org/1999/xlink" x="0px" y="0px"
	 viewBox="0 0 60 60" style="enable-background:new 0 0 60 60;" xml:space="preserve">
<style type="text/css">
	.st0{fill:#F4DFCC;}
</style>
<g>
	<path class="st0" d="M53.82,5.33c-0.01-0.13-0.04-0.26-0.07-0.34c-0.01-0.06-0.02-0.11-0.04-0.17l-0.03-0.08
		c-0.03-0.06-0.07-0.11-0.08-0.12c-0.06-0.12-0.13-0.23-0.23-0.34c-0.04-0.04-0.08-0.06-0.09-0.06c-0.1-0.09-0.22-0.17-0.34-0.24
		l-0.05-0.06H52.8c-13.22-5.25-32.37-5.25-45.59,0L7.13,3.96c-0.15,0.07-0.29,0.16-0.4,0.26L6.62,4.3C6.54,4.4,6.46,4.51,6.43,4.58
		C6.39,4.63,6.36,4.69,6.3,4.78C6.28,4.84,6.27,4.9,6.27,4.94C6.22,5.07,6.19,5.21,6.18,5.39v23.22
		c0.01,11.34,6.16,21.8,16.07,27.32l7,3.89C29.48,59.94,29.74,60,30,60c0.26,0,0.52-0.07,0.75-0.19l7.01-3.89
		c9.9-5.51,16.06-15.98,16.06-27.32V5.42l0.01-0.04L53.82,5.33z M50.73,6.5V28.6c-0.01,10.21-5.55,19.65-14.48,24.61L30,56.69
		l-6.25-3.47c-8.92-4.97-14.47-14.4-14.48-24.62V6.5C21.52,1.96,38.49,1.96,50.73,6.5z"/>
	<path class="st0" d="M21.19,27.66L21.19,27.66c-0.62-0.59-1.6-0.57-2.19,0.05c-0.57,0.6-0.57,1.53,0.01,2.14l7.42,7.43
		c0.29,0.29,0.68,0.45,1.15,0.45c0,0,0,0,0,0c0.43-0.02,0.84-0.21,1.11-0.54l14.85-17.33c0.55-0.65,0.48-1.62-0.17-2.18
		c-0.31-0.27-0.72-0.4-1.12-0.37c-0.41,0.03-0.79,0.22-1.06,0.53L27.44,33.91L21.19,27.66z"/>
</g>
</svg>
