<?xml version="1.0" encoding="utf-8"?>
<!-- Generator: Adobe Illustrator 24.0.1, SVG Export Plug-In . SVG Version: 6.00 Build 0)  -->
<svg version="1.1" id="Calque_1" xmlns="http://www.w3.org/2000/svg" xmlns:xlink="http://www.w3.org/1999/xlink" x="0px" y="0px"
	 viewBox="0 0 60 60" style="enable-background:new 0 0 60 60;" xml:space="preserve">
<style type="text/css">
	.st0{fill:#F4DFCC;}
</style>
<g id="Groupe_94">
	<path id="Tracé_163" class="st0" d="M59.04,8c0.55,0,1-0.45,1-1c0,0,0,0,0,0V1c0-0.55-0.45-1-1-1c0,0,0,0,0,0h-58
		c-0.55,0-1,0.45-1,1c0,0,0,0,0,0v6c0,0.55,0.45,1,1,1c0,0,0,0,0,0h1v40h-1c-0.55,0-1,0.45-1,1c0,0.55,0.45,1,1,1h28v2.12
		c-2.14,0.55-3.42,2.73-2.87,4.87c0.55,2.14,2.73,3.42,4.87,2.87c2.14-0.55,3.42-2.73,2.87-4.87c-0.36-1.41-1.46-2.51-2.87-2.87V50
		h28c0.55,0,1-0.45,1-1c0-0.55-0.45-1-1-1h-1V8H59.04z M32.04,56c0,1.11-0.9,2-2,2s-2-0.9-2-2s0.9-2,2-2l0,0
		C31.15,54,32.04,54.9,32.04,56z M2.04,2h56v4h-56V2z M56.04,48h-52V8h52L56.04,48L56.04,48z"/>
	<path id="Tracé_164" class="st0" d="M27.33,18.71c0.39,0.39,1.02,0.39,1.41,0c0,0,0,0,0,0l1.29-1.29l1.29,1.29
		c0.39,0.39,1.02,0.4,1.41,0.01c0.39-0.39,0.4-1.02,0.01-1.41c0,0-0.01-0.01-0.01-0.01L31.45,16l1.29-1.29
		c0.38-0.4,0.37-1.03-0.03-1.41c-0.39-0.37-1-0.37-1.39,0l-1.29,1.29l-1.29-1.29c-0.4-0.38-1.03-0.37-1.41,0.03
		c-0.37,0.39-0.37,1,0,1.39L28.63,16l-1.29,1.29C26.94,17.68,26.95,18.32,27.33,18.71z"/>
	<path id="Tracé_165" class="st0" d="M13.33,18.71c0.39,0.39,1.02,0.39,1.41,0c0,0,0,0,0,0l1.29-1.29l1.29,1.29
		c0.39,0.39,1.02,0.4,1.41,0.01c0.39-0.39,0.4-1.02,0.01-1.41c0,0-0.01-0.01-0.01-0.01L17.45,16l1.29-1.29
		c0.38-0.4,0.37-1.03-0.03-1.41c-0.39-0.37-1-0.37-1.39,0l-1.29,1.29l-1.29-1.29c-0.4-0.38-1.03-0.37-1.41,0.03
		c-0.37,0.39-0.37,1,0,1.39L14.62,16l-1.29,1.29C12.94,17.69,12.94,18.32,13.33,18.71z"/>
	<path id="Tracé_166" class="st0" d="M41.33,18.71c0.39,0.39,1.02,0.39,1.41,0c0,0,0,0,0,0l1.29-1.29l1.29,1.29
		c0.39,0.39,1.02,0.4,1.41,0.01c0.39-0.39,0.4-1.02,0.01-1.41c0,0-0.01-0.01-0.01-0.01L45.45,16l1.29-1.29
		c0.38-0.4,0.37-1.03-0.03-1.41c-0.39-0.37-1-0.37-1.39,0l-1.29,1.29l-1.29-1.29c-0.4-0.38-1.03-0.37-1.41,0.03
		c-0.37,0.39-0.37,1,0,1.39L42.62,16l-1.29,1.29C40.94,17.69,40.94,18.32,41.33,18.71z"/>
	<path id="Tracé_167" class="st0" d="M30.04,36c-2.21,0-4,1.79-4,4c0,2.21,1.79,4,4,4c2.21,0,4-1.79,4-4l0,0
		C34.04,37.79,32.25,36,30.04,36z M30.04,42c-1.11,0-2-0.9-2-2s0.9-2,2-2s2,0.9,2,2C32.04,41.1,31.15,42,30.04,42L30.04,42z"/>
	<path id="Tracé_168" class="st0" d="M16.04,36c-2.21,0-4,1.79-4,4c0,2.21,1.79,4,4,4s4-1.79,4-4l0,0
		C20.04,37.79,18.25,36,16.04,36z M16.04,42c-1.11,0-2-0.9-2-2s0.9-2,2-2c1.11,0,2,0.9,2,2C18.04,41.1,17.15,42,16.04,42L16.04,42z"
		/>
	<path id="Tracé_169" class="st0" d="M44.04,44c2.21,0,4-1.79,4-4s-1.79-4-4-4c-2.21,0-4,1.79-4,4v0C40.04,42.21,41.83,44,44.04,44
		z M44.04,38c1.11,0,2,0.9,2,2c0,1.11-0.9,2-2,2c-1.11,0-2-0.9-2-2C42.04,38.9,42.94,38,44.04,38C44.04,38,44.04,38,44.04,38
		L44.04,38z"/>
	<path id="Tracé_170" class="st0" d="M49.84,21.02l-0.03,0.01c-0.02,0-0.04,0.01-0.06,0.02l-0.03,0.01
		c-0.02,0.01-0.04,0.01-0.06,0.02s-0.02,0.01-0.03,0.02c-0.01,0.01-0.04,0.02-0.05,0.03s-0.02,0.01-0.03,0.02
		c-0.02,0.01-0.03,0.02-0.05,0.03c-0.01,0.01-0.03,0.02-0.04,0.03s-0.03,0.02-0.04,0.03c-0.03,0.02-0.05,0.04-0.07,0.07l-3,3
		c-0.38,0.4-0.37,1.03,0.03,1.41c0.39,0.37,1,0.37,1.39,0l1.29-1.29v4.17l-3.71,3.71c-0.39,0.39-0.4,1.02-0.01,1.41
		c0.39,0.39,1.02,0.4,1.41,0.01c0,0,0.01-0.01,0.01-0.01l4-4c0.02-0.02,0.05-0.05,0.07-0.07c0.01-0.01,0.02-0.03,0.03-0.04
		c0.01-0.01,0.02-0.03,0.03-0.04c0.01-0.01,0.02-0.03,0.03-0.05c0.01-0.02,0.01-0.02,0.02-0.03c0.01-0.01,0.02-0.04,0.03-0.05
		c0.01-0.02,0.01-0.02,0.02-0.03s0.01-0.04,0.02-0.06c0.01-0.02,0.01-0.02,0.01-0.03c0.01-0.02,0.01-0.04,0.02-0.06
		c0-0.01,0.01-0.02,0.01-0.03c0.01-0.03,0.01-0.06,0.01-0.08c0,0,0-0.01,0-0.01c0-0.04,0.01-0.07,0-0.11v-4.58l1.29,1.29
		c0.39,0.39,1.02,0.4,1.41,0.01c0.39-0.39,0.4-1.02,0.01-1.41c0,0-0.01-0.01-0.01-0.01l-3-3c-0.02-0.02-0.05-0.05-0.07-0.07
		c-0.01-0.01-0.03-0.02-0.04-0.03s-0.03-0.02-0.04-0.03l-0.05-0.03c-0.01-0.01-0.02-0.01-0.03-0.02c-0.01-0.01-0.04-0.02-0.05-0.03
		c-0.02-0.01-0.02-0.01-0.03-0.02c-0.01-0.01-0.04-0.01-0.06-0.02l-0.03-0.01c-0.02-0.01-0.04-0.01-0.06-0.02l-0.03-0.01
		c-0.03-0.01-0.06-0.01-0.08-0.01h-0.01c-0.07-0.01-0.14-0.01-0.2,0h-0.01C49.9,21.01,49.87,21.01,49.84,21.02z"/>
	<path id="Tracé_171" class="st0" d="M7.75,25.71l1.29-1.29V29c0,0.03,0,0.07,0,0.11c0,0,0,0.01,0,0.01c0,0.03,0.01,0.06,0.01,0.08
		l0.01,0.03c0,0.02,0.01,0.04,0.02,0.06c0,0.01,0.01,0.02,0.01,0.03c0,0.01,0.01,0.04,0.02,0.06s0.01,0.02,0.02,0.03
		s0.02,0.04,0.03,0.05c0.01,0.02,0.01,0.02,0.02,0.03c0.01,0.01,0.02,0.03,0.03,0.05c0.01,0.02,0.02,0.03,0.03,0.04
		s0.02,0.03,0.03,0.04c0.02,0.03,0.04,0.05,0.07,0.07l4,4c0.39,0.39,1.03,0.38,1.41-0.01c0.38-0.39,0.38-1.02,0-1.41l-3.7-3.71
		v-4.17l1.29,1.29c0.39,0.39,1.02,0.4,1.41,0.01c0.39-0.39,0.4-1.02,0.01-1.41c0,0-0.01-0.01-0.01-0.01l-3-3
		c-0.02-0.02-0.05-0.05-0.07-0.07c-0.01-0.01-0.03-0.02-0.04-0.03s-0.03-0.02-0.04-0.03l-0.05-0.03c-0.01-0.01-0.02-0.01-0.03-0.02
		c-0.01-0.01-0.04-0.02-0.05-0.03l-0.03-0.02c-0.02-0.01-0.04-0.01-0.06-0.02l-0.03-0.01c-0.02-0.01-0.04-0.01-0.06-0.02l-0.03-0.01
		c-0.03-0.01-0.06-0.01-0.08-0.01h-0.01C10.07,21,10.01,21,9.94,21H9.93c-0.03,0-0.06,0.01-0.08,0.01l-0.03,0.01
		c-0.02,0-0.04,0.01-0.06,0.02l-0.03,0.01c-0.02,0.01-0.04,0.01-0.06,0.02l-0.03,0.02c-0.02,0.01-0.04,0.02-0.05,0.03
		c-0.02,0.01-0.02,0.01-0.03,0.02c-0.02,0.01-0.03,0.02-0.05,0.03c-0.01,0.01-0.03,0.02-0.04,0.03l-0.04,0.03
		c-0.03,0.02-0.05,0.04-0.07,0.07l-3,3c-0.38,0.4-0.37,1.03,0.03,1.42C6.75,26.07,7.36,26.07,7.75,25.71L7.75,25.71z"/>
	<path id="Tracé_172" class="st0" d="M27.75,25.71l1.29-1.29V33c0,0.55,0.45,1,1,1c0.55,0,1-0.45,1-1l0,0v-8.59l1.29,1.29
		c0.39,0.39,1.03,0.38,1.41-0.01c0.38-0.39,0.38-1.02,0-1.41l-3-3c-0.02-0.02-0.05-0.05-0.07-0.07c-0.01-0.01-0.03-0.02-0.04-0.03
		c-0.01-0.01-0.03-0.02-0.04-0.03l-0.05-0.03c-0.01-0.01-0.02-0.01-0.03-0.02c-0.01-0.01-0.04-0.02-0.05-0.03l-0.03-0.02
		c-0.02-0.01-0.04-0.01-0.06-0.02l-0.03-0.01c-0.02-0.01-0.04-0.01-0.06-0.02l-0.03-0.01c-0.03-0.01-0.06-0.01-0.08-0.01h-0.01
		c-0.07-0.01-0.14-0.01-0.2,0h-0.01c-0.03,0-0.06,0.01-0.08,0.01l-0.03,0.01c-0.02,0-0.04,0.01-0.06,0.02l-0.03,0.01
		c-0.02,0.01-0.04,0.01-0.06,0.02l-0.03,0.02c-0.02,0.01-0.04,0.02-0.05,0.03c-0.02,0.01-0.02,0.01-0.03,0.02
		c-0.02,0.01-0.03,0.02-0.05,0.03c-0.01,0.01-0.03,0.02-0.04,0.03s-0.03,0.02-0.04,0.03c-0.03,0.02-0.05,0.04-0.07,0.07l-3,3
		c-0.38,0.4-0.37,1.03,0.03,1.41C26.75,26.08,27.36,26.08,27.75,25.71L27.75,25.71z"/>
</g>
</svg>
